<?xml version="1.0" encoding="UTF-8"?>
<svg id="_图层_1" data-name="图层 1" xmlns="http://www.w3.org/2000/svg" xmlns:xlink="http://www.w3.org/1999/xlink" viewBox="0 0 446.72 199.72">
  <defs>
    <style>
      .cls-1 {
        fill: #f33;
      }

      .cls-2 {
        fill: #1eb91e;
      }

      .cls-3 {
        fill: #2f3747;
        stroke: #2f3747;
      }

      .cls-3, .cls-4 {
        stroke-miterlimit: 10;
      }

      .cls-5 {
        fill: #00d45f;
      }

      .cls-6, .cls-4 {
        fill: #efefef;
      }

      .cls-7 {
        fill: #ff5959;
      }

      .cls-8 {
        fill: url(#_未命名的渐变_302);
      }

      .cls-9 {
        fill: url(#_未命名的渐变_303);
      }

      .cls-10 {
        fill: url(#_未命名的渐变_307);
      }

      .cls-11 {
        fill: #20c11b;
      }

      .cls-12 {
        fill: #1f00ff;
      }

      .cls-13 {
        fill: #3400e9;
      }

      .cls-14 {
        fill: #fff;
      }

      .cls-15 {
        fill: #f9f9f9;
      }

      .cls-16 {
        fill: #f2f2f2;
      }

      .cls-17 {
        fill: #f99;
      }

      .cls-4 {
        stroke: #efefef;
      }

      .cls-18 {
        fill: url(#_未命名的渐变_303-2);
      }
    </style>
    <linearGradient id="_未命名的渐变_303" data-name="未命名的渐变 303" x1="22.33" y1="53.25" x2="241.04" y2="53.25" gradientTransform="translate(-.53 .26) rotate(.42)" gradientUnits="userSpaceOnUse">
      <stop offset="0" stop-color="#155eff"/>
      <stop offset="1" stop-color="#0053d4"/>
    </linearGradient>
    <linearGradient id="_未命名的渐变_302" data-name="未命名的渐变 302" x1="135.37" y1="119.74" x2="427.37" y2="119.74" gradientTransform="translate(-.53 .26) rotate(.42)" gradientUnits="userSpaceOnUse">
      <stop offset="0" stop-color="#155eff"/>
      <stop offset="1" stop-color="#2a8fff"/>
    </linearGradient>
    <linearGradient id="_未命名的渐变_307" data-name="未命名的渐变 307" x1="57.91" y1="70.11" x2="80.05" y2="56.8" gradientTransform="translate(22.41 38.56) rotate(8.66)" gradientUnits="userSpaceOnUse">
      <stop offset=".44" stop-color="#00d45f"/>
      <stop offset="1" stop-color="#20c11b"/>
    </linearGradient>
    <linearGradient id="_未命名的渐变_303-2" data-name="未命名的渐变 303" x1="35.06" y1="170.9" x2="68.47" y2="170.9" gradientTransform="translate(18.45 -40.93) rotate(-18.48)" xlink:href="#_未命名的渐变_303"/>
  </defs>
  <path class="cls-12" d="M308.23,80.81c-2.96-.63-5.64-1.68-7.96-3.13-2.55-1.59-4.66-3.6-6.27-5.97-1.66-2.45-2.73-5.22-3.19-8.23-.42-2.73-.32-5.61.31-8.55l2.59-12.13c.63-2.95,1.69-5.61,3.16-7.91,1.6-2.51,3.64-4.58,6.05-6.14,2.42-1.57,5.15-2.58,8.12-3.02,2.71-.39,5.55-.28,8.46.34,2.28.49,4.36,1.21,6.24,2.15,2.25-1.41,4.94-1.99,7.68-1.54l7.99,1.33c2.25.48,5,1.73,7.01,3.91,2.28-1.13,4.84-1.47,7.32-.94l.67.16,7.33,2.05c5.51,1.54,8.89,6.72,8.16,12.27,2.07-.04,4.21.17,6.39.64,4.96,1.06,8.38,3.26,10.72,5.62,4.04-1.22,8.75-1.39,13.37-.4.44.09,1.2.26,2.12.58,2.88-3.33,7.23-4.42,10.97-3.62l.6.14,7.24,1.91c5.34,1.47,8.7,6.22,8.44,11.49,1.62,2.46,2.24,5.53,1.6,8.51l-.17.69-1.83,6.33c-.42,1.31-1.04,2.51-1.81,3.55.2,1.28.17,2.6-.12,3.93-.37,1.71-1.07,2.92-1.34,3.37l-.37.58-3.05,4.45c-2.93,4.21-7.46,6.1-12.13,5.11-.6-.13-1.5-.35-2.56-.86-3.44-1.52-6.16-3.55-8.16-6.06-5.11,2.24-11.3,2.46-16.41,1.37l-.42-.09c-3.13-.67-5.37-2.21-6.88-4.07-2.45,1.22-5.24,1.57-8.12.95l-.46-.1c-4.54-.97-8.5-2.92-11.62-5.68-2.24,1.15-4.89,1.56-7.56.99l-.38-.09-7.33-2.01c-1.88-.47-3.59-1.46-4.99-2.86-1.41.41-2.91.56-4.44.42l-7.97-.66-.76-.16c-.84-.18-1.65-.45-2.41-.81l-1.05,4.91-12.78-2.73Z"/>
  <g>
    <g>
      <path class="cls-12" d="M92.92,156.68c-8.64,6.91-31.92,14.35-42.79,17.02-9.6.34-16.28-11.01-23.66-17.39-9.42-9.74-20.02-16.79-15.43-32.75,3.32-12.87,3.29-31.07,10.64-41.34,6.21-5.66,16.68-7.84,24.65-11.28,6.22-2.25,15.14-6.2,19.78-5.44,6.74.79,14.09,10.45,19.83,15.79,7.62,8.71,19.16,15.41,17.86,27.48-2.19,12.33-4.65,35.73-10.2,47.05l-.68.86Z"/>
      <path class="cls-12" d="M11.04,123.58c-4.59,15.95,6.01,23.01,15.43,32.75,7.33,6.35,13.99,17.58,23.51,17.37l-28.87-90.47c-6.73,10.41-6.85,27.86-10.08,40.36Z"/>
      <path class="cls-12" d="M103.68,115.59c4.59-15.95-6.01-23.01-15.43-32.75-7.33-6.35-13.99-17.58-23.51-17.37l28.87,90.47c6.73-10.41,6.85-27.86,10.08-40.36Z"/>
    </g>
    <g>
      <path class="cls-12" d="M84.06,147.76c-6.58,5.26-24.31,10.92-32.58,12.96-7.31.26-12.4-8.38-18.01-13.24-7.17-7.42-15.24-12.79-11.75-24.93,2.53-9.8,2.5-23.66,8.1-31.47,4.73-4.31,12.7-5.97,18.77-8.59,4.73-1.71,11.53-4.72,15.06-4.14,5.13.6,10.73,7.96,15.1,12.02,5.8,6.63,14.59,11.73,13.6,20.93-1.66,9.39-3.54,27.2-7.77,35.82l-.52.65Z"/>
      <path class="cls-12" d="M21.71,122.56c-3.49,12.15,4.58,17.52,11.75,24.93,5.58,4.83,10.65,13.39,17.9,13.23l-21.98-68.89c-5.13,7.92-5.22,21.21-7.67,30.73Z"/>
      <path class="cls-12" d="M92.25,116.47c3.49-12.15-4.58-17.52-11.75-24.93-5.58-4.83-10.65-13.39-17.9-13.23l21.98,68.89c5.13-7.92,5.22-21.21,7.67-30.73Z"/>
    </g>
    <path class="cls-12" d="M144.43,122.05l-39.58,14.64c-1.41.52-2.94-.31-3.41-1.85l-13.35-43.29c-.48-1.54.28-3.21,1.69-3.73l39.58-14.64c1.41-.52,2.94.31,3.41,1.85l13.35,43.29c.48,1.54-.28,3.21-1.69,3.73Z"/>
    <path class="cls-12" d="M142.48,170.47c-1.39-.02-2.75-.28-4.18-.8l-12.45-4.12c-5.5-2-9.01-7.25-8.93-13.39s15.66-58.16,31.21-73.59l.2-.2.22-.19c2.45-2.17,6.01-3.49,9.3-3.44l11.76.17c5.36.08,10.23,3.28,12.22,7.99l27.29,63c.58,1.31,1.29,3.5,1.26,6.13-.07,5.48-3.05,10.25-7.6,12.16l-15.72,5.9c-1.5.6-3.14.9-4.76.87-5.07-.08-9.7-3.35-11.51-8.15l-1.37-3.5c-1.94,1.44-4.26,2.25-6.71,2.22l-.64-.02-7.86-.54c-.1.28-.31.92-.31.92l-.15.38c-2.03,5.13-6.35,8.26-11.27,8.19Z"/>
    <path class="cls-12" d="M266.33,137.34c-.15-.93-.31-2.62-.27-5.51.07-5.2,2.88-39.34,3.23-42.82l.09-.6v-1.1c.1-6.57-4.21-13.29-12.45-13.41,0,0-14.2-.48-14.2-.48-6.96-.1-12.56,5.23-13.04,12.31l-.87,11.73c-.25,0-.51-.02-.76-.02-20.56-.31-33.1,18.24-33.33,36.34-.26,20.11,15.24,36.71,34.56,37,4.22.06,8.48-.7,12.58-2.22,5.45,3.4,10.81,4.2,11.59,4.3l.51.07h.52c2.48.04,8.61-.76,11.88-8.93l4.36-10.63c.77-1.65,1.18-3.49,1.2-5.48.04-3.15-.94-7.36-5.6-10.56Z"/>
    <path class="cls-12" d="M270.62,173.35c-5.95-.09-10.78-5.16-11.24-11.79l-.02-.46-1.43-46.44v-.26c.09-6.68,4.62-12.01,10.54-12.57l.49-.03,3.59-.14c4.63-1.46,9.29-2.17,13.89-2.1,3.53.05,6.92.57,10.1,1.53,5.02-1.61,10-2.39,14.82-2.32,19.73.29,34.14,15.39,35.04,36.71.2,4.68.75,5.17,1.2,5.56l.21.19c3.29,3.09,4.93,6.69,4.88,10.7-.05,3.61-1.51,7.01-4.04,9.4-1.5,1.7-3.66,3.9-6.79,7.07l-.18.18c-2.74,2.65-5.82,3.97-9.14,3.92-3.19-.05-8.13-1.62-12.73-5.33-1.94,2.56-4.77,4.26-8.02,4.53l-.36.02-15.36.67h-.27c-1.59-.03-3.1-.39-4.47-1.03-1.34.76-2.85,1.25-4.45,1.38l-.42.03-15.42.58h-.4Z"/>
    <path class="cls-12" d="M352.07,173.32c-5.99-.09-10.86-5.16-11.33-11.79l-.02-.43-1.47-43.53v-.28c.02-1.45.26-2.84.67-4.13-2.28-3.83-3.59-8.41-3.52-13.31.17-13.21,10.14-23.81,22.21-23.64,12.03.18,21.68,11.07,21.51,24.29-.05,3.92-.97,7.61-2.54,10.85.64,1.52,1.01,3.2,1.03,4.97l1.47,43.46v.28c-.09,6.57-4.75,12.02-10.62,12.57l-.49.03-16.48.66h-.41Z"/>
    <path class="cls-12" d="M425.37,176.45c-4.05-.06-11.63-3.35-17.17-10.47-1.92,4.12-5.86,6.93-10.36,6.86l-.66-.02-16.54-1.16c-6.09-.65-10.62-6.19-10.53-12.9v-.28s2.83-46.61,2.83-46.61l.02-.21c.63-6.51,5.73-11.54,11.63-11.45l.69.03,7.86.58c3.38-.63,6.6-.91,9.79-.86,22.51.33,38.64,16.89,38.35,39.36l-.04,2.93c-.04,2.94.48,3.7,1.03,4.28,2.93,2.87,4.51,6.57,4.46,10.45-.05,4.1-1.91,7.83-5.09,10.25l-.02-.03c-1.8,1.58-4.34,3.52-7.92,6.25-2.47,2.01-5.34,3.05-8.31,3Z"/>
    <g>
      <path class="cls-12" d="M17.78,100.83c-.87.02-1.85.04-3.01-.04-5.35-.2-10.11-4.41-11.46-10.24l-2.85-12.89c-.44-1.59-.46-2.89-.47-3.41-.13-6.95,4.97-12.72,11.36-12.87,0,0,.54-.02.64-.02-.93-1.62-2.13-3.56-3.06-5.07-4.32-6.84-6.62-13.79-6.74-20.53C1.91,19.89,14.96,2.71,39.72,2.14c8.07-.19,13.11,3.09,14.97,9.73l.12.48,3.03,12.84c.43,1.61.45,2.94.46,3.42.14,7.33-4.97,12.19-10.17,12.95.53.86,1.18,1.89,2,3.09l.12.18c4.49,6.94,6.83,13.95,6.96,20.83.31,16.84-14.35,34.6-39.43,35.18Z"/>
      <path class="cls-12" d="M104.32,98.84c-3.19.07-11.08-2.26-17.31-8.85-1.67,4.58-5.7,7.87-10.46,7.98l-16.22.37c-6.39.15-11.7-5.43-11.83-12.42l-1.35-72.59c-.13-7,4.97-12.81,11.36-12.96L74.73,0c6.35-.15,11.62,5.43,11.75,12.42l.24,12.73c18.06,2.6,30.55,16.93,31.2,36.89.14,4.21.82,4.78,1.48,5.33l.18.16c4.15,3.63,5.08,7.71,5.13,10.5.07,3.75-1.35,7.24-4.01,9.83l-7.73,7.24c-2.53,2.37-5.52,3.65-8.65,3.73Z"/>
      <path class="cls-12" d="M156.21,96.75c-6.31.15-11.57-5.16-11.9-11.91l-3.14-46.22v-.29c-.13-6.91,4.73-12.67,10.9-13.03l8.06-.64c4.79-1.64,9.6-2.52,14.32-2.63,3.38-.08,6.8.26,10.15,1.01l.37.09c5.53,1.47,9.17,6.33,9.29,12.38.03,1.41-.17,2.53-.27,3.14l-2.15,12.77c-.97,5.53-4.79,9.61-9.59,10.57l1.36,20.09v.29c.14,6.98-4.72,12.66-10.88,13.03l-16.24,1.36h-.27Z"/>
      <path class="cls-12" d="M213.89,96.31c-19.47.45-35.01-15.41-35.4-36.11-.42-22.73,14.36-38.95,35.94-39.45,23.07-.53,35.89,18.61,36.23,36.89.21,11.2-4.34,21.45-12.81,28.87-6.78,5.94-15.74,9.6-23.96,9.79Z"/>
      <path class="cls-12" d="M111.76,30.54c.07-.18.17-.55-.6-3.23-.5-1.74-.65-1.96-.83-2.71-.22-.94-.41-2.36-.09-4.27.17-1.02.63-2.85,1.95-4.55.22-.29,3.25-4.07,6.25-3.29,1.16.3,2.33,1.29,3.43.66.27-.15.45-.35.56-.49.17-.4.4-.9.74-1.43.06-.09.39-.65.87-1.14.56-.57,1.46-1.32,2.7-1.86,2.01-.88,3.82-.72,4.71-.57,1.65.67,2.6,1.6,3.17,2.36,1.73,2.29,1.73,5.32,3.29,5.84.59.2,1.13.07,1.13.07.53-.16.91-.53,1.3-.93.3-.31.41-.49.6-.72,0,0,.67-.8,1.72-1.32,1.52-.74,3.85.89,4.15,1.1,3.01,2.11,5.01,7.64,5.1,13.89.09,6.53-1.97,8.36-3.68,15.72-1.89,8.12-.46,10.56-1.02,23.15-.24,5.31-.85,12.97-2.58,22.26-1.07-.52-2.84-1.27-5.13-1.67-7.02-1.24-10.88,2.16-16.27.34-1.38-.47-3.39-1.45-5.48-3.84.22-2.57.39-6,.21-10.03-.45-10.13-.86-19.02-5.8-26.68,0,0-4.62-6.81-4.64-11.26,0-.8.24-1.48.24-1.48.38-1.07,1.11-1.69,1.37-1.91,1.16-.96,2.19-.88,2.63-2.01Z"/>
    </g>
    <path class="cls-12" d="M130.54,85.36l4.65,14.41,9.67-8.91s-1.17-2.49-.72-4.97c.45-2.48-13.59-.53-13.59-.53Z"/>
    <path class="cls-12" d="M258.56,79.88c-.99-.28-8.36-7.22-9.28-9.34-.21-.38-.3-1.05-.17-1.62l.35-1.37c.19-.83.65-1.37,1.35-1.57l10.6-2.54c.43-.07.7-.06.94.01.63.18,1.08.73,1.19,1.47.13.56.4,1.93.26,2.54-.16.7-.67,1.25-1.3,1.4l-6.43,1.55c1.15,1.12,2.79,2.67,4.8,4.56l.15.14c.52.5.73,1.18.57,1.89-.06.25-.15.43-.21.56l-.12.21-.83,1.26c-.67,1.01-1.45.97-1.86.86Z"/>
    <path class="cls-12" d="M268.84,84.14c-1.12-.31-1.82-1-2.09-2.04l-3.18-14.45c-.11-.56-.12-1.04-.01-1.47.2-.85.8-1.44,1.65-1.61.04,0,4.67-.86,5.7-.57.85.24,1.47.91,1.65,1.81l.88,5.39c.79-1.19,1.6-2.44,2.13-3.27.32-.5.55-.86.63-.98.6-.81,1.42-1.12,2.28-.88.36.1.68.26.99.49l3.23,2.15c1.41.93,1.38,2.11,1.24,2.73-.22.96-5.78,10.84-10.18,13.24-.68.34-1.5.41-2.21.21l-2.7-.75Z"/>
    <path class="cls-12" d="M287.99,89.8c-4.83-1.34-7.08-5.57-6.01-11.3.38-2.01,1.21-5.85,1.57-7.49.57-2.44,1.96-2.46,2.53-2.36h0c.82,0,2.24.21,4.82.93,1.31.36,1.75,1.51,1.6,2.49-.24,1.64-.5,3.02-.92,5.32l-.34,1.85c-.26,1.39-.17,2.16.28,2.28.17.05.39.06.64.05l2.57-9.05c.34-1.08,1.32-1.66,2.3-1.39,0,0,5.32,1.82,5.32,1.82.94.26,1.53,1.38,1.26,2.52l-4.28,15.08c-.34,1.08-1.32,1.66-2.3,1.39l-5.01-1.72c-1.45.06-2.8-.07-4.02-.41Z"/>
    <path class="cls-12" d="M310.14,96.23c-6.82-1.89-9.17-8.1-7.98-13.26,1.12-4.8,5.47-9.09,12.38-7.17,6.47,1.8,6.91,7.82,6.14,11.1-.5,2.14-1.87,3.36-3.96,3.54-.42.04-.88.04-1.35.03.15.39.19.84.08,1.33-.19.83-2.08,3.48-2.1,3.5-.98,1.24-2.11,1.23-2.9,1.01l-.32-.09Z"/>
    <path class="cls-12" d="M319.74,98.67c-.28-.08-.52-.2-1.6-1.09-.66-.61-.91-1.42-.73-2.17.07-.31.2-.52.26-.62l14.57-21.09c.45-.64,1.19-.92,1.9-.72.38.11.72.36,1.53,1.08l.13.12c.58.44.84,1.22.65,2.02-.2.84-14.64,21.54-14.79,21.74-.4.63-1.17.94-1.92.73Z"/>
  </g>
  <path class="cls-6" d="M421.94,62.99c.08-.31.17-.63.25-.96.66-3.1-1.07-5.96-4.12-6.8l-7.24-1.91-.34-.08c-2.61-.56-5.74.54-6.86,4.25l-.17.6c-.6.08-1.16.27-1.68.54-1.37-1.67-3.43-2.14-4.39-2.34-4.88-1.04-10.29-.54-14,1.82-1.8-3.28-5.05-5.96-10.1-7.04s-9.6-.35-12.93,1.53c1.12-4.25,1.96-7.48,2.05-7.91.63-2.95-1.1-5.79-4.01-6.61l-7.33-2.05-.33-.08c-1.43-.31-2.92-.03-4.19.78-1.25.8-2.13,2.04-2.42,3.39l-.38,1.57c-1.1-2.74-2-4.62-2.77-5.82-1-1.55-2.93-2.55-4.39-2.86l-.18-.04-7.71-1.28c-2.71-.44-4.93,1.12-6.04,3.22-2.07-1.85-4.79-3.17-8.15-3.88-2.26-.48-4.44-.57-6.48-.28-2.16.31-4.14,1.04-5.87,2.17-1.73,1.12-3.2,2.61-4.36,4.44-1.11,1.73-1.91,3.77-2.4,6.06l-2.59,12.13c-.48,2.27-.57,4.46-.25,6.52.33,2.18,1.11,4.18,2.29,5.93,1.16,1.72,2.7,3.18,4.58,4.35,1.77,1.1,3.85,1.91,6.17,2.4l7.28,1.55,1.97-9.25,2.45.52c0,2.72,1.89,5.24,4.54,5.8l.41.09,7.66.63c2.66.24,4.73-1.08,5.84-2.82.26.83.43,1.35.55,1.68,1.05,2.65,2.98,3.49,4.02,3.75l7.16,1.97.24.06c2.98.63,5.89-1.14,6.65-4.01,2.24,4.05,6.34,7.38,12.53,8.7l.46.1c2.7.58,5.16-.33,6.95-2.58,1.08-1.49,1.86-2.72,2.42-3.74l.67,4.34c.16,1.25.97,4.25,4.96,5.1l.42.09c5.62,1.2,13.6.42,17.31-4.21.91,3.68,3.25,7.02,8.44,9.29.62.3,1.15.42,1.38.46,1.14.24,4.05.46,6.31-2.79l3.05-4.45.16-.25c.17-.28.51-.87.68-1.69.25-1.16.21-2.78-1.08-4.36,1.44-.64,2.6-1.9,3.11-3.52l1.83-6.33.07-.3c.46-2.15-.4-4.36-2.11-5.63Z"/>
  <g>
    <g>
      <path class="cls-6" d="M97.29,151.09c-8.36,6.3-30.86,13.04-41.35,15.45-9.27.28-15.69-10.14-22.79-16.02-9.07-8.96-19.28-15.46-14.8-30.07,3.24-11.79,3.26-28.47,10.39-37.85,6.01-5.17,16.12-7.13,23.82-10.26,6.01-2.04,14.63-5.63,19.11-4.92,6.5.74,13.57,9.63,19.09,14.54,7.33,8.01,18.45,14.19,17.17,25.25-2.15,11.29-4.59,32.73-9.98,43.09l-.66.78Z"/>
      <path class="cls-6" d="M18.35,120.48c-4.47,14.61,5.74,21.11,14.8,30.07,7.06,5.84,13.45,16.16,22.64,16l-27.61-83.02c-6.53,9.52-6.69,25.51-9.84,36.96Z"/>
      <path class="cls-6" d="M107.79,113.47c4.47-14.61-5.74-21.11-14.8-30.07-7.06-5.84-13.45-16.16-22.64-16l27.61,83.02c6.53-9.52,6.69-25.51,9.84-36.96Z"/>
    </g>
    <g>
      <path class="cls-6" d="M88.76,142.89c-6.37,4.8-23.49,9.93-31.49,11.77-7.06.21-11.94-7.72-17.35-12.19-6.9-6.82-14.68-11.77-11.27-22.89,2.47-8.98,2.48-21.67,7.91-28.82,4.57-3.93,12.28-5.43,18.14-7.81,4.57-1.55,11.14-4.29,14.55-3.75,4.95.57,10.33,7.33,14.54,11.07,5.58,6.1,14.05,10.8,13.07,19.23-1.63,8.6-3.49,24.92-7.6,32.81l-.5.6Z"/>
      <path class="cls-6" d="M28.65,119.58c-3.41,11.12,4.37,16.07,11.27,22.89,5.38,4.45,10.24,12.3,17.24,12.18l-21.02-63.21c-4.97,7.25-5.1,19.43-7.49,28.14Z"/>
      <path class="cls-6" d="M96.76,114.24c3.41-11.12-4.37-16.07-11.27-22.89-5.38-4.45-10.24-12.3-17.24-12.18l21.02,63.21c4.97-7.25,5.1-19.43,7.49-28.14Z"/>
    </g>
    <path class="cls-6" d="M147.11,119.53l-38.24,13.29c-1.36.47-2.83-.29-3.29-1.7l-12.77-39.72c-.45-1.41.28-2.94,1.64-3.42l38.24-13.29c1.36-.47,2.83.29,3.29,1.7l12.77,39.72c.45,1.41-.28,2.94-1.64,3.42Z"/>
    <path class="cls-4" d="M145.08,163.9c-1.34-.02-2.66-.27-4.03-.75l-12.01-3.82c-5.31-1.85-8.68-6.68-8.58-12.3.09-5.45,15.28-53.25,30.33-67.34l.2-.19.21-.17c2.37-1.98,5.81-3.17,8.99-3.12l11.35.2c5.17.09,9.86,3.04,11.77,7.37l26.17,57.84c.55,1.2,1.24,3.21,1.2,5.62-.08,5.02-2.98,9.39-7.37,11.12l-15.19,5.35c-1.45.54-3.03.81-4.59.78-4.9-.09-9.35-3.11-11.08-7.51l-1.31-3.21c-1.87,1.31-4.11,2.05-6.49,2.01l-.62-.02-7.59-.52c-.1.26-.3.84-.3.84l-.14.35c-1.97,4.69-6.15,7.55-10.91,7.47Z"/>
    <path class="cls-4" d="M264.72,133.96c-.14-.85-.29-2.4-.25-5.05.08-4.77,2.89-36.05,3.24-39.24l.09-.55.02-1c.1-6.02-4.04-12.19-12-12.33,0,0-13.71-.49-13.71-.49-6.71-.12-12.14,4.75-12.62,11.24l-.88,10.75c-.24,0-.49-.02-.74-.02-19.85-.35-32,16.6-32.28,33.2-.31,18.43,14.61,33.7,33.26,34.03,4.07.07,8.19-.61,12.15-2,5.25,3.14,10.42,3.88,11.17,3.98l.5.06h.5c2.4.05,8.31-.67,11.49-8.14l4.24-9.73c.75-1.51,1.15-3.19,1.18-5.02.05-2.88-.89-6.75-5.38-9.69Z"/>
    <path class="cls-4" d="M268.76,166.98c-5.74-.1-10.39-4.76-10.82-10.84l-.02-.42-1.25-42.57v-.24c.11-6.13,4.49-10.99,10.21-11.49l.47-.03,3.47-.12c4.47-1.32,8.98-1.95,13.41-1.87,3.41.06,6.67.54,9.74,1.44,4.85-1.46,9.65-2.16,14.31-2.07,19.04.34,32.91,14.22,33.71,33.76.18,4.29.71,4.74,1.14,5.1l.2.18c3.17,2.84,4.74,6.15,4.68,9.82-.06,3.31-1.48,6.42-3.92,8.6-1.45,1.55-3.55,3.56-6.58,6.45l-.17.16c-2.66,2.42-5.63,3.62-8.83,3.56s-7.85-1.51-12.28-4.93c-1.88,2.34-4.62,3.89-7.76,4.13l-.35.02-14.83.57h-.26c-1.54-.03-2.99-.37-4.31-.96-1.3.7-2.75,1.14-4.3,1.25l-.41.02-14.88.48h-.39Z"/>
    <path class="cls-4" d="M347.38,167.23c-5.78-.1-10.47-4.76-10.9-10.85l-.02-.39-1.3-39.9v-.25c.03-1.33.26-2.6.66-3.78-2.19-3.52-3.44-7.72-3.36-12.21.2-12.11,9.85-21.79,21.51-21.59,11.61.2,20.89,10.22,20.69,22.33-.06,3.59-.95,6.97-2.49,9.94.61,1.4.96,2.94.98,4.56l1.29,39.84v.25c-.11,6.02-4.62,11-10.29,11.49l-.48.03-15.91.55h-.4Z"/>
    <path class="cls-4" d="M418.12,170.35c-3.9-.07-11.21-3.11-16.55-9.65-1.86,3.77-5.68,6.33-10.02,6.25l-.63-.02-15.96-1.12c-5.88-.61-10.23-5.71-10.13-11.86v-.26s2.86-42.71,2.86-42.71l.02-.19c.62-5.96,5.57-10.56,11.26-10.46l.67.03,7.59.56c3.27-.56,6.37-.81,9.45-.76,21.73.38,37.25,15.61,36.9,36.21l-.05,2.68c-.05,2.69.46,3.39.98,3.93,2.82,2.64,4.33,6.03,4.27,9.59-.06,3.76-1.87,7.17-4.94,9.38l-.02-.03c-1.74,1.45-4.2,3.22-7.67,5.71-2.39,1.83-5.17,2.77-8.03,2.72Z"/>
    <g>
      <path class="cls-4" d="M24.92,99.65c-.84.02-1.78.03-2.9-.05-5.17-.2-9.75-4.08-11.03-9.42l-2.71-11.82c-.42-1.46-.44-2.65-.45-3.13-.11-6.37,4.83-11.64,11-11.76,0,0,.52-.01.62-.02-.9-1.49-2.05-3.27-2.94-4.66-4.15-6.29-6.35-12.66-6.45-18.84-.24-14.55,12.4-30.25,36.3-30.69,7.79-.14,12.64,2.88,14.43,8.97l.12.44,2.89,11.78c.41,1.48.43,2.7.43,3.13.11,6.72-4.83,11.16-9.85,11.83.51.79,1.14,1.73,1.92,2.84l.11.16c4.31,6.38,6.56,12.81,6.66,19.11.25,15.43-13.95,31.66-38.16,32.11Z"/>
      <path class="cls-4" d="M108.45,98.12c-3.08.06-10.69-2.11-16.68-8.17-1.63,4.2-5.53,7.19-10.12,7.28l-15.66.29c-6.17.11-11.28-5.01-11.39-11.43l-1.1-66.54c-.11-6.41,4.83-11.72,11-11.84l15.66-.29c6.13-.11,11.2,5.01,11.31,11.43l.19,11.67c17.43,2.44,29.44,15.63,30.01,33.92.12,3.86.78,4.38,1.41,4.89l.18.14c3.99,3.34,4.88,7.09,4.92,9.64.06,3.43-1.33,6.63-3.9,9l-7.48,6.61c-2.45,2.16-5.34,3.33-8.36,3.39Z"/>
      <path class="cls-4" d="M158.54,96.38c-6.09.11-11.15-4.77-11.45-10.95l-2.9-42.38v-.27c-.11-6.33,4.6-11.6,10.56-11.91l7.78-.56c4.63-1.49,9.27-2.28,13.83-2.36,3.27-.06,6.56.26,9.8.96l.35.08c5.33,1.37,8.84,5.84,8.93,11.38.02,1.29-.17,2.32-.27,2.88l-2.11,11.7c-.96,5.06-4.65,8.79-9.29,9.65l1.26,18.42v.27c.11,6.4-4.59,11.59-10.54,11.9l-15.68,1.19h-.26Z"/>
      <path class="cls-4" d="M214.22,96.17c-18.79.35-33.75-14.25-34.07-33.22-.34-20.83,13.97-35.65,34.8-36.03,22.27-.41,34.58,17.18,34.86,33.94.17,10.26-4.25,19.64-12.44,26.42-6.56,5.42-15.22,8.75-23.15,8.9Z"/>
      <path class="cls-4" d="M115.83,35.54c.07-.17.17-.5-.57-2.96-.48-1.59-.63-1.8-.8-2.48-.21-.86-.39-2.17-.08-3.92.17-.93.61-2.61,1.9-4.16.22-.26,3.15-3.72,6.05-3,1.12.28,2.25,1.19,3.31.62.26-.14.44-.32.54-.45.16-.37.39-.82.72-1.3.06-.08.38-.6.85-1.04.55-.52,1.41-1.21,2.61-1.7,1.94-.8,3.69-.64,4.55-.5,1.59.62,2.51,1.48,3.06,2.17,1.66,2.11,1.65,4.88,3.16,5.37.57.18,1.09.07,1.09.07.51-.15.88-.49,1.25-.85.29-.28.39-.44.58-.66,0,0,.64-.73,1.67-1.2,1.47-.67,3.71.83,4,1.02,2.9,1.95,4.81,7.02,4.88,12.75.07,5.99-1.92,7.65-3.59,14.39-1.84,7.44-.47,9.68-1.05,21.21-.24,4.87-.85,11.88-2.56,20.4-1.03-.48-2.74-1.17-4.95-1.55-6.77-1.16-10.51,1.95-15.71.26-1.33-.43-3.27-1.34-5.28-3.54.22-2.36.39-5.5.23-9.19-.4-9.28-.78-17.44-5.52-24.47,0,0-4.44-6.26-4.44-10.34,0-.73.23-1.36.23-1.36.37-.98,1.07-1.55,1.33-1.75,1.13-.88,2.12-.8,2.55-1.84Z"/>
    </g>
    <path class="cls-6" d="M133.8,85.85l4.44,13.22,9.36-8.14s-1.13-2.29-.69-4.56-13.12-.53-13.12-.53Z"/>
    <path class="cls-4" d="M257.39,81.27c-.96-.26-8.05-6.65-8.93-8.59-.21-.35-.29-.96-.16-1.49l.34-1.25c.19-.76.63-1.26,1.31-1.44l10.24-2.29c.41-.06.67-.05.91.01.61.16,1.04.68,1.14,1.35.12.51.38,1.77.25,2.33-.16.64-.65,1.14-1.26,1.28l-6.21,1.4c1.11,1.03,2.69,2.46,4.62,4.19l.14.13c.5.46.7,1.09.54,1.73-.06.23-.15.4-.21.51l-.11.19-.81,1.15c-.65.92-1.4.88-1.8.78Z"/>
    <path class="cls-4" d="M267.3,85.2c-1.08-.29-1.76-.92-2.01-1.87l-3.03-13.25c-.11-.52-.11-.95,0-1.35.19-.78.78-1.32,1.6-1.47.04,0,4.51-.77,5.51-.51.82.22,1.41.84,1.58,1.66l.83,4.94c.76-1.09,1.55-2.23,2.06-2.99.31-.46.54-.78.62-.89.58-.74,1.37-1.02,2.21-.8.35.09.66.24.95.46l3.12,1.98c1.36.86,1.33,1.94,1.18,2.5-.22.88-5.61,9.92-9.86,12.1-.66.31-1.44.37-2.14.19l-2.6-.7Z"/>
    <path class="cls-4" d="M285.76,90.45c-4.66-1.25-6.82-5.13-5.77-10.38.37-1.84,1.19-5.36,1.54-6.86.55-2.24,1.9-2.25,2.45-2.15h0c.79,0,2.17.2,4.65.87,1.26.34,1.68,1.39,1.53,2.29-.24,1.5-.49,2.77-.91,4.88l-.34,1.69c-.26,1.27-.17,1.98.26,2.09.16.04.37.06.62.05l2.51-8.29c.33-.99,1.28-1.52,2.23-1.27,0,0,5.13,1.69,5.13,1.69.91.24,1.47,1.27,1.21,2.31l-4.17,13.81c-.33.99-1.28,1.52-2.23,1.27l-4.83-1.59c-1.4.05-2.71-.08-3.88-.39Z"/>
    <path class="cls-4" d="M307.13,96.42c-6.58-1.76-8.83-7.46-7.66-12.18,1.09-4.39,5.3-8.31,11.97-6.53,6.24,1.67,6.64,7.19,5.9,10.19-.49,1.96-1.81,3.08-3.84,3.23-.4.03-.84.04-1.3.02.14.36.18.77.07,1.22-.19.76-2.02,3.18-2.03,3.21-.95,1.14-2.04,1.12-2.8.92l-.31-.08Z"/>
    <path class="cls-4" d="M316.38,98.69c-.27-.07-.5-.19-1.54-1-.63-.57-.87-1.3-.7-1.99.07-.29.2-.48.26-.57l14.12-19.28c.43-.58,1.15-.84,1.84-.66.37.1.69.33,1.47.99l.13.11c.55.4.81,1.12.63,1.85-.19.77-14.19,19.69-14.33,19.88-.38.57-1.13.86-1.86.66Z"/>
  </g>
  <path class="cls-14" d="M420.25,66.16c.14-.52.28-1.04.42-1.58.55-2.6-.88-4.99-3.45-5.69l-7.21-1.9-.33-.07c-2.19-.47-4.81.45-5.76,3.59-.12.41-.23.82-.35,1.22-.99.01-1.92.34-2.69.92-1.1-1.97-3.25-2.46-4.3-2.68-5.06-1.08-10.72-.44-14.17,2.31-1.56-3.49-4.72-6.42-9.93-7.53-6.15-1.31-10.95.1-14.29,2.82,1.43-5.39,2.58-9.8,2.69-10.32.52-2.46-.91-4.83-3.35-5.51l-7.3-2.04-.3-.07c-2.47-.53-5,1.11-5.5,3.48l-1.09,4.48c-1.62-4.32-2.8-6.95-3.76-8.43-.85-1.31-2.57-2.19-3.8-2.46l-.16-.03-7.68-1.27c-2.79-.45-4.97,1.61-5.56,3.98-2.02-2.26-4.91-3.85-8.68-4.65-2.15-.46-4.22-.55-6.15-.27-2.03.3-3.88.98-5.5,2.03-1.61,1.05-2.99,2.45-4.08,4.16-1.04,1.64-1.81,3.57-2.28,5.75l-2.59,12.13c-.46,2.16-.54,4.24-.24,6.18.31,2.04,1.03,3.91,2.14,5.55,1.09,1.61,2.53,2.98,4.3,4.08,1.68,1.04,3.65,1.81,5.87,2.28l6.36,1.36,1.97-9.25,4.14.88-.02.12c-.34,2.52,1.36,5,3.78,5.51l.35.07,7.61.63c3.05.28,5.18-1.84,5.64-4.01l.05-.22.07-.82c.8,2.61,1.2,3.93,1.41,4.5.88,2.22,2.44,2.95,3.39,3.19l7.13,1.96.21.05c2.49.53,4.94-.97,5.56-3.38.2-.68.43-1.5.69-2.43,1.72,4.82,5.93,9,12.93,10.5l.46.1c2.33.5,4.42-.24,5.99-2.22,1.05-1.45,2.85-4.08,3.13-5.39.03-.12.05-.24.06-.36.02,0,.05,0,.07,0,.36-.04.69-.11,1.02-.19-.07.19-.16.36-.2.56-.14.67-.08,1.23-.03,1.68l.73,4.74c.17,1.31.95,3.61,4.23,4.31l.42.09c6.15,1.31,15.3.18,17.64-6.12.39,4.95,2.64,8.79,8.32,11.27.51.25.96.35,1.16.39,1.19.25,3.48.28,5.35-2.4l3.04-4.43.14-.22c.15-.26.43-.74.58-1.41.25-1.19.14-2.89-1.83-4.5,0-.05-.01-.11-.02-.18,1.75-.19,3.3-1.41,3.89-3.27l1.83-6.29.07-.26c.44-2.05-.55-4.08-2.28-5.02ZM408.72,111.38s.04.02.06.03c0,.05-.01.1-.02.15-.02-.06-.03-.12-.05-.18Z"/>
  <g>
    <path class="cls-7" d="M296.78,60.51l2.59-12.13c.37-1.75.96-3.25,1.77-4.52.81-1.26,1.79-2.28,2.96-3.03,1.17-.76,2.5-1.24,4-1.46,1.5-.22,3.1-.14,4.83.22,3.21.68,5.55,1.96,7.03,3.84s1.94,4.14,1.37,6.82l-3.57,16.76-4.28-.91.75-3.71c-.59,1.24-1.34,2.14-2.26,2.68-.92.54-1.97.69-3.15.43-1.75-.37-2.9-1.18-3.47-2.41-.57-1.24-.6-3.03-.1-5.4l.66-3.08c.5-2.36,1.27-3.99,2.29-4.89,1.02-.9,2.41-1.16,4.15-.79,1.08.23,1.92.73,2.54,1.49s.98,1.76,1.09,2.99c.05-.34.11-.81.2-1.43.09-.61.21-1.26.36-1.96l.16-.77c.3-1.39.04-2.58-.77-3.57s-2.1-1.68-3.87-2.05c-2.08-.44-3.82-.18-5.23.8-1.4.98-2.35,2.62-2.84,4.93l-2.59,12.13c-.48,2.26-.26,4.11.67,5.54.93,1.43,2.52,2.39,4.78,2.87l2.7.57-.9,4.24-2.7-.57c-1.8-.38-3.36-.98-4.67-1.8-1.32-.82-2.37-1.81-3.17-2.99s-1.31-2.51-1.54-4.01c-.23-1.5-.16-3.11.2-4.83ZM310.52,55.58l-.66,3.08c-.24,1.13-.25,2.03-.03,2.69s.7,1.08,1.45,1.24c1.64.35,2.71-.63,3.21-2.94l.66-3.08c.49-2.31-.08-3.64-1.73-3.99-.69-.15-1.28,0-1.77.47s-.86,1.31-1.12,2.54Z"/>
    <path class="cls-1" d="M341.75,78.69c-.42-.09-.69-.55-.85-.95-.54-1.44-5.18-17.41-6.4-19.85-.1-.26-.24-.37-.36-.4-.19-.04-.3.1-.37.4l-.03.15-1.54,16.83v.04c-.1.42-.65,1.11-1.64,1.02l-7.4-.61-.12-.02c-.58-.12-.91-.84-.84-1.35l4.64-29.89.02-.08c.09-.42.56-1.29,1.34-1.16l7.58,1.26.08.02c.58.12,1.28.6,1.43.83,1.82,2.8,4.88,11.67,7.19,18.57.07.26.17.36.28.38.15.03.28-.18.35-.49l3.82-15.65c.1-.46.61-.8,1.07-.7l.08.02,7.3,2.04c.61.17.79.65.69,1.11-.21,1-5.94,22.73-8,29.78-.11.5-.61.8-1.15.68l-7.19-1.98Z"/>
    <path class="cls-17" d="M367.25,82.82c-8.74-1.86-11.86-8.77-10.61-14.62,1.17-5.51,6.3-10.46,15.08-8.58,9.55,2.04,8.16,10.64,7.89,11.91-.38,1.77-1.42,3.08-3.86,3.36-1.94.23-4.88.05-6.9-.3-.62-.13-.75-.44-.81-.94-.19-1.37-.39-4.03-.36-4.18.09-.42.44-.55.96-.56,2.1-.04,2.39-.05,2.5-.59.07-.35-.39-1.74-2.01-2.08-1.85-.39-3.73.89-4.24,3.28-.58,2.73.76,6.24,5.58,7.27.27.06.58.12.86.14l.08.02c.54.11,1.12.6.98,1.26-.08.39-1.64,2.79-2.5,3.98-.44.55-1.06.98-2.17.74l-.46-.1Z"/>
    <path class="cls-1" d="M382.71,86.04c-.85-.18-1.2-.42-1.29-1.12l-.74-4.83c-.01-.12-.03-.25-.01-.32.12-.58.91-.49,1.37-.39,2.28.45,3.59-.4,3.79-1.33.11-.5-.26-1.22-.65-2.03l-.79-1.38c-1.28-2.29-1.62-4.09-1.31-5.55.93-4.35,7.7-5.32,12.74-4.25,1.5.32,1.85.56,1.98,1.31l.78,4.84c.04.17.02.29,0,.4-.09.42-.55.49-1.05.38l-.15-.03c-2.31-.49-3.36.09-3.53.86-.14.65.28,1.51,1.4,3.44,1.36,2.3,1.76,4.2,1.45,5.66-.97,4.54-8.39,5.54-13.55,4.44l-.42-.09Z"/>
    <path class="cls-17" d="M411.74,90.82c-.46.67-.89.98-1.47.85-.12-.02-.23-.05-.34-.11-5.94-2.55-7.37-6.4-5.49-16.19l-2.86-.77c-.42-.13-.68-.59-.59-1.01l1.83-6.29c.13-.42.55-.69,1.01-.59l2.43.68c.39-1.45.8-3.01,1.27-4.64.14-.45.37-1.17,1.37-.96l.15.03,7.21,1.9c.65.18.87.63.73,1.28-.42,1.6-.9,3.27-1.36,4.86l2.62.72c.42.09.69.55.59,1.01l-1.83,6.29c-.12.38-.5.66-.93.57l-.08-.02-2.52-.66c-.75,3.5-.85,6.26.69,7.35.38.28.81.54.72.96-.02.08-.08.18-.14.29l-3.04,4.43Z"/>
  </g>
  <g>
    <g>
      <path class="cls-15" d="M99.9,147.84c-8.09,5.87-29.87,12.15-40.04,14.39-8.98.25-15.19-9.46-22.07-14.93-8.78-8.35-18.67-14.41-14.34-28.03,3.14-10.98,3.15-26.53,10.05-35.27,5.82-4.81,15.61-6.64,23.07-9.55,5.82-1.9,14.16-5.24,18.5-4.58,6.3.69,13.14,8.98,18.49,13.55,7.1,7.47,17.87,13.23,16.63,23.54-2.07,10.52-4.43,30.5-9.65,40.16l-.64.73Z"/>
      <path class="cls-15" d="M23.45,119.29c-4.33,13.61,5.56,19.67,14.34,28.03,6.84,5.45,13.03,15.06,21.93,14.92l-26.75-77.38c-6.32,8.87-6.47,23.78-9.52,34.44Z"/>
      <path class="cls-15" d="M110.06,112.78c4.33-13.61-5.56-19.67-14.34-28.03-6.84-5.45-13.03-15.06-21.93-14.92l26.75,77.38c6.32-8.87,6.47-23.78,9.52-34.44Z"/>
    </g>
    <g>
      <path class="cls-14" d="M94.47,144.81c-7.21,5.23-26.61,10.82-35.66,12.82-7.99.23-13.53-8.42-19.66-13.3-7.82-7.44-16.63-12.84-12.78-24.96,2.79-9.78,2.81-23.63,8.95-31.42,5.18-4.29,13.9-5.91,20.54-8.51,5.18-1.69,12.62-4.67,16.48-4.08,5.61.62,11.71,8,16.47,12.07,6.32,6.65,15.92,11.78,14.81,20.97-1.85,9.37-3.95,27.17-8.6,35.77l-.57.65Z"/>
      <path class="cls-14" d="M26.37,119.38c-3.85,12.13,4.95,17.52,12.78,24.96,6.09,4.85,11.61,13.42,19.53,13.29l-23.83-68.93c-5.63,7.9-5.77,21.18-8.48,30.68Z"/>
      <path class="cls-14" d="M103.51,113.58c3.85-12.13-4.95-17.52-12.78-24.96-6.09-4.85-11.61-13.42-19.53-13.29l23.83,68.93c5.63-7.9,5.77-21.18,8.48-30.68Z"/>
    </g>
    <rect class="cls-14" x="103.99" y="80.52" width="44.07" height="44.07" rx="1.39" ry="1.39" transform="translate(-26.01 45.22) rotate(-18.48)"/>
    <path class="cls-14" d="M149.31,157.83c-1.3-.02-2.57-.25-3.9-.7l-11.63-3.56c-5.14-1.72-8.4-6.22-8.31-11.47s14.78-49.63,29.35-62.75l.19-.17.2-.16c2.29-1.84,5.63-2.96,8.7-2.9l10.99.19c5.01.09,9.55,2.84,11.4,6.87l25.35,53.91c.54,1.12,1.2,2.99,1.16,5.24-.08,4.68-2.88,8.75-7.13,10.36l-14.71,4.99c-1.41.5-2.94.76-4.45.73-4.74-.08-9.06-2.9-10.73-7.01l-1.27-2.99c-1.81,1.22-3.98,1.91-6.28,1.87l-.6-.02-7.35-.49c-.09.24-.29.78-.29.78l-.14.32c-1.91,4.37-5.95,7.04-10.56,6.96Z"/>
    <path class="cls-14" d="M265.14,129.95c-.14-.79-.28-2.24-.24-4.71.08-4.45,2.79-33.59,3.13-36.57l.09-.51.02-.94c.1-5.61-3.92-11.36-11.62-11.5,0,0-13.27-.46-13.27-.46-6.5-.11-11.76,4.42-12.22,10.47l-.85,10.02c-.24,0-.47-.02-.71-.02-19.22-.33-30.98,15.47-31.24,30.93-.3,17.18,14.15,31.41,32.21,31.72,3.95.07,7.93-.57,11.77-1.86,5.09,2.92,10.09,3.62,10.82,3.71l.48.06h.48c2.32.05,8.05-.62,11.13-7.58l4.1-9.07c.73-1.41,1.11-2.97,1.14-4.67.05-2.69-.86-6.29-5.21-9.04Z"/>
    <path class="cls-14" d="M269.07,160.73c-5.56-.1-10.06-4.44-10.48-10.11l-.02-.39-1.22-39.68v-.22c.1-5.71,4.35-10.24,9.88-10.7l.46-.03,3.36-.11c4.33-1.23,8.69-1.82,12.99-1.74,3.3.06,6.46.51,9.43,1.35,4.7-1.36,9.35-2.01,13.86-1.93,18.44.32,31.87,13.26,32.65,31.47.18,4,.69,4.42,1.11,4.76l.2.17c3.07,2.65,4.6,5.73,4.54,9.16-.05,3.08-1.43,5.98-3.8,8.02-1.41,1.45-3.43,3.32-6.37,6.01l-.17.15c-2.57,2.25-5.45,3.37-8.55,3.32s-7.6-1.41-11.89-4.6c-1.82,2.18-4.47,3.62-7.51,3.85l-.34.02-14.36.52h-.25c-1.49-.03-2.9-.35-4.17-.9-1.26.65-2.67,1.06-4.17,1.17l-.39.02-14.41.44h-.37Z"/>
    <path class="cls-14" d="M345.19,160.98c-5.6-.1-10.14-4.44-10.56-10.11l-.02-.36-1.27-37.19v-.24c.03-1.24.25-2.42.64-3.53-2.12-3.28-3.33-7.2-3.26-11.38.19-11.29,9.54-20.31,20.82-20.11,11.24.19,20.23,9.53,20.04,20.82-.06,3.35-.92,6.49-2.41,9.26.59,1.3.93,2.74.95,4.25l1.26,37.13v.24c-.1,5.61-4.47,10.25-9.96,10.7l-.46.03-15.4.5h-.38Z"/>
    <path class="cls-14" d="M413.7,163.9c-3.78-.07-10.86-2.9-16.02-9-1.8,3.51-5.49,5.9-9.7,5.83l-.61-.02-15.46-1.04c-5.69-.57-9.91-5.33-9.81-11.06v-.24s2.76-39.8,2.76-39.8l.02-.18c.6-5.56,5.39-9.84,10.9-9.74l.65.02,7.34.52c3.16-.53,6.17-.76,9.15-.71,21.04.36,36.07,14.56,35.74,33.75l-.04,2.5c-.04,2.51.44,3.16.95,3.66,2.73,2.46,4.2,5.62,4.14,8.94-.06,3.5-1.8,6.69-4.79,8.74l-.02-.02c-1.69,1.35-4.07,3-7.42,5.32-2.32,1.71-5,2.58-7.78,2.54Z"/>
    <g>
      <path class="cls-14" d="M28.86,95.85c-.81.01-1.73.03-2.81-.04-5-.19-9.44-3.8-10.68-8.79l-2.63-11.02c-.4-1.36-.42-2.47-.43-2.92-.1-5.94,4.68-10.85,10.65-10.95,0,0,.5-.01.6-.02-.87-1.38-1.98-3.05-2.84-4.34-4.02-5.86-6.15-11.8-6.25-17.56-.24-13.56,12-28.19,35.14-28.59,7.54-.13,12.24,2.68,13.97,8.37l.11.41,2.8,10.98c.39,1.38.41,2.51.42,2.92.11,6.27-4.68,10.4-9.54,11.02.49.74,1.1,1.62,1.86,2.65l.11.15c4.18,5.94,6.35,11.94,6.45,17.82.25,14.38-13.5,29.51-36.94,29.92Z"/>
      <path class="cls-14" d="M109.75,94.44c-2.99.05-10.35-1.97-16.15-7.62-1.57,3.91-5.35,6.7-9.8,6.78l-15.16.26c-5.98.1-10.93-4.67-11.03-10.65l-1.08-62.01c-.1-5.98,4.67-10.93,10.65-11.03l15.16-.26c5.94-.1,10.85,4.68,10.95,10.65l.19,10.88c16.87,2.28,28.51,14.57,29.06,31.62.12,3.6.75,4.08,1.37,4.56l.17.13c3.87,3.11,4.73,6.61,4.77,8.99.06,3.2-1.28,6.18-3.77,8.38l-7.24,6.16c-2.37,2.01-5.17,3.1-8.09,3.15Z"/>
      <path class="cls-14" d="M158.25,92.84c-5.9.1-10.8-4.45-11.09-10.21l-2.82-39.5v-.25c-.11-5.9,4.45-10.81,10.22-11.09l7.54-.52c4.48-1.38,8.98-2.12,13.39-2.2,3.16-.06,6.35.25,9.49.9l.34.08c5.16,1.28,8.56,5.44,8.65,10.61.02,1.2-.16,2.16-.26,2.68l-2.04,10.9c-.93,4.72-4.5,8.19-8.99,8.99l1.22,17.16v.25c.11,5.96-4.44,10.8-10.2,11.09l-15.18,1.1h-.26Z"/>
      <path class="cls-14" d="M212.16,92.66c-18.19.32-32.69-13.29-33-30.97-.34-19.42,13.52-33.22,33.69-33.57,21.57-.38,33.49,16.02,33.77,31.64.17,9.56-4.11,18.31-12.04,24.62-6.35,5.05-14.73,8.15-22.42,8.29Z"/>
      <path class="cls-14" d="M116.87,36.12c.07-.16.16-.47-.56-2.76-.47-1.49-.61-1.67-.77-2.32-.21-.8-.38-2.02-.07-3.65.16-.87.59-2.43,1.84-3.88.21-.24,3.05-3.47,5.85-2.79,1.09.26,2.18,1.11,3.21.58.25-.13.42-.3.52-.42.16-.34.38-.77.7-1.22.05-.08.37-.55.82-.97.53-.48,1.37-1.12,2.53-1.58,1.88-.74,3.57-.6,4.4-.47,1.54.58,2.43,1.38,2.96,2.03,1.61,1.96,1.6,4.55,3.06,5,.55.17,1.05.06,1.05.06.5-.14.86-.45,1.21-.79.28-.27.38-.41.56-.61,0,0,.62-.68,1.61-1.12,1.43-.63,3.6.77,3.87.95,2.81,1.81,4.66,6.54,4.73,11.88.07,5.58-1.86,7.13-3.47,13.41-1.78,6.93-.46,9.02-1.01,19.77-.23,4.54-.82,11.07-2.47,19.01-1-.45-2.65-1.09-4.79-1.45-6.56-1.08-10.18,1.81-15.21.24-1.29-.4-3.16-1.25-5.11-3.3.22-2.2.38-5.13.22-8.57-.39-8.65-.76-16.25-5.35-22.81,0,0-4.3-5.83-4.3-9.64,0-.68.22-1.27.22-1.27.35-.92,1.04-1.44,1.28-1.63,1.09-.82,2.05-.75,2.47-1.71Z"/>
    </g>
    <path class="cls-14" d="M138.36,85.08l4.31,12.32,9.06-7.58s-1.09-2.13-.66-4.25c.43-2.12-12.7-.5-12.7-.5Z"/>
    <path class="cls-14" d="M258.03,80.84c-.93-.24-7.79-6.2-8.65-8.01-.2-.33-.28-.9-.15-1.38l.33-1.17c.18-.71.61-1.17,1.26-1.34l9.91-2.13c.4-.06.65-.05.88.01.59.15,1.01.63,1.1,1.26.12.48.37,1.65.24,2.17-.15.6-.63,1.07-1.22,1.19l-6.02,1.3c1.08.96,2.6,2.29,4.48,3.91l.14.12c.49.42.68,1.01.52,1.62-.06.21-.14.37-.2.47l-.11.18-.78,1.08c-.63.86-1.36.82-1.74.73Z"/>
    <path class="cls-14" d="M267.63,84.51c-1.05-.27-1.7-.86-1.95-1.75l-2.94-12.35c-.1-.48-.1-.89,0-1.26.19-.73.75-1.23,1.55-1.37.04,0,4.37-.72,5.33-.47.8.21,1.37.78,1.53,1.55l.81,4.6c.74-1.01,1.5-2.08,2-2.78.3-.43.52-.73.6-.83.56-.69,1.33-.95,2.14-.74.34.09.64.23.92.42l3.02,1.84c1.32.8,1.28,1.81,1.15,2.33-.21.82-5.43,9.24-9.55,11.28-.64.29-1.4.35-2.07.17l-2.52-.65Z"/>
    <path class="cls-14" d="M285.51,89.41c-4.51-1.16-6.6-4.78-5.59-9.67.36-1.71,1.15-4.99,1.49-6.39.54-2.08,1.84-2.09,2.37-2h0c.77,0,2.1.19,4.5.81,1.22.32,1.63,1.3,1.49,2.13-.23,1.4-.47,2.58-.88,4.54l-.32,1.58c-.25,1.19-.16,1.84.26,1.95.16.04.36.05.6.04l2.43-7.72c.32-.92,1.24-1.41,2.16-1.18,0,0,4.96,1.57,4.97,1.57.88.23,1.42,1.18,1.17,2.15l-4.04,12.87c-.32.92-1.24,1.41-2.16,1.18l-4.68-1.49c-1.36.05-2.62-.07-3.76-.37Z"/>
    <path class="cls-14" d="M306.2,94.98c-6.37-1.64-8.55-6.95-7.42-11.35,1.05-4.1,5.13-7.75,11.59-6.08,6.04,1.56,6.44,6.7,5.72,9.5-.47,1.82-1.75,2.87-3.71,3.01-.39.03-.82.04-1.26.02.14.34.17.72.07,1.13-.18.71-1.95,2.96-1.97,2.99-.92,1.06-1.98,1.05-2.71.86l-.3-.08Z"/>
    <path class="cls-14" d="M315.16,97.1c-.26-.07-.48-.18-1.49-.93-.61-.53-.84-1.22-.68-1.85.07-.27.19-.44.25-.53l13.67-17.97c.42-.54,1.12-.78,1.78-.61.36.09.67.31,1.43.93l.12.1c.54.37.78,1.05.61,1.73-.18.72-13.74,18.35-13.88,18.52-.37.53-1.09.8-1.8.62Z"/>
  </g>
  <path class="cls-9" d="M21.35,74.77c-.08-.15-.08-.38-.09-.54-.02-1.15,1.13-1.56,1.59-1.57h.31c5.23-.1,10.87-2.96,10.78-7.81-.04-2.54-1.47-4.82-5.73-11.2-3.23-4.71-4.69-8.99-4.76-12.76-.21-12.14,13.5-19.23,26.42-19.45,3-.05,4.54.23,5.03,1.83l2.89,11.33c.08.23.08.46.09.61.02,1.23-1.12,1.71-1.58,1.72h-.46c-5,.1-9.65,2.02-9.58,6.4.05,2.61,2.03,6.19,5.65,11.13,3.31,4.71,4.77,8.99,4.84,12.83.22,12.76-14.94,20.56-28.24,20.79-.77.01-1.46.03-2.23-.04-1,.02-1.94-.81-2.18-1.81l-2.74-11.48ZM112.8,85.7c-.83.71-1.6.95-2.29.96-.31,0-14.57-2.36-14.84-17.96-.16-9.3-4.52-12.53-10.06-12.43h-.38s.49,27.91.49,27.91c.02.92-.66,1.63-1.51,1.64l-15.37.27c-.92.02-1.63-.66-1.64-1.59l-1.1-62.87c-.01-.85.66-1.63,1.59-1.64l15.37-.27c.85-.01,1.55.74,1.57,1.59l.35,19.98c.92-.09,1.84-.11,2.69-.12,14.45-.25,26.13,8.16,26.63,23.37.16,4.99,1.23,8.82,5.05,11.75.47.38,1.33,1.13,1.34,1.98,0,.38-.14.85-.67,1.32l-7.2,6.12ZM159.68,85.04c-.92.02-1.7-.58-1.72-1.51l-2.85-39.93c-.02-.92.66-1.7,1.51-1.72l8.91-.62c4.13-1.38,8.11-2.06,11.96-2.13,2.61-.05,5.15.22,7.55.71,1.16.29,1.63.89,1.65,1.82,0,.31-.07.62-.14,1l-2.04,10.88c-.21,1.08-.97,1.63-1.89,1.65-.23,0-.54-.07-.85-.14-1.24-.36-2.55-.57-3.85-.55-1.08.02-2.15.19-3.37.52l1.94,27.18v.15c.02.85-.66,1.55-1.51,1.56l-15.28,1.11ZM214.34,84.86c-12.53.22-23.68-8.66-23.91-22.19-.28-15.83,11.42-24.26,24.94-24.5,16.99-.3,24.52,12.87,24.69,22.87.26,14.99-14.81,23.63-25.73,23.82ZM223.69,61.17c-.03-1.46-.46-8.91-8.3-8.77-6.46.11-8.21,5.6-8.15,9.06.09,5.3,4.3,8.77,8.69,8.69,5.46-.1,7.84-4.6,7.76-8.98Z"/>
  <g>
    <path class="cls-13" d="M119.23,38.74c-.19.15-.73.57-.98,1.33,0,0-.16.48-.14,1.06.12,3.21,3.77,8.26,3.77,8.26,3.91,5.67,4.44,12.09,5.04,19.4.24,2.91.2,5.37.09,7.22,1.63,1.79,3.17,2.56,4.22,2.95,4.1,1.49,6.93-.84,12.24.28,1.73.37,3.09.96,3.91,1.37,1.07-6.64,1.34-12.13,1.39-15.95.1-9.05-1.03-10.85.19-16.63,1.1-5.24,2.61-6.49,2.37-11.2-.22-4.5-1.87-8.55-4.19-10.17-.23-.16-2.02-1.41-3.15-.93-.78.33-1.26.89-1.26.89-.14.16-.21.28-.43.5-.28.27-.56.53-.95.63,0,0-.4.08-.85-.09-1.19-.43-1.27-2.61-2.63-4.31-.45-.56-1.19-1.27-2.45-1.8-.68-.14-2.04-.31-3.53.25-.92.35-1.58.86-1.99,1.25-.35.33-.59.73-.63.79-.24.37-.41.72-.52,1-.08.1-.21.24-.41.34-.81.41-1.72-.34-2.6-.59-2.28-.66-4.47,1.97-4.63,2.17-.96,1.18-1.25,2.49-1.36,3.21-.19,1.37-.02,2.4.18,3.08.15.55.27.71.7,1.98.65,1.96.59,2.21.54,2.34-.3.8-1.08.71-1.93,1.36Z"/>
    <path class="cls-14" d="M135.8,46.09c-.14.11-.3.25-.4.32-.52.39-1.31.73-2.05.76-1.39.06-2.51-.94-2.74-1.14-2.13-1.88-1.95-5.24-1.91-6.14.06-1.14.19-3.69,2.17-5.35,1.84-1.55,4.52-1.67,6.77-.59,2.69,1.3,4.11,4.01,4.47,6.11.12.72.37,2.19-.41,3.43-.11.17-.85,1.32-2.19,1.57-1.2.22-1.9-.45-2.62.09-.18.13-.37.35-1.08.94Z"/>
    <ellipse class="cls-16" cx="123.1" cy="41.94" rx="2.37" ry="2.66" transform="translate(-4.59 66.61) rotate(-29.75)"/>
    <ellipse class="cls-16" cx="124.81" cy="30.6" rx="2.37" ry="2.66" transform="translate(1.27 65.97) rotate(-29.75)"/>
    <ellipse class="cls-16" cx="133.81" cy="26.74" rx="2.37" ry="2.66" transform="translate(4.37 69.92) rotate(-29.75)"/>
    <ellipse class="cls-16" cx="145.17" cy="32.86" rx="2.37" ry="2.66" transform="translate(2.83 76.37) rotate(-29.75)"/>
  </g>
  <path class="cls-8" d="M260.3,137.8c-3.13-1.49-3.97-6.18-3.86-12.44.09-5.24,3.1-37.17,3.27-38.19,0-.08,0-.15,0-.23.02-1.07-.58-2.06-2.73-2.03-4.43,0-8.86-.02-13.29-.02-1.54.02-2.78.8-2.88,2.08-.58,6.74-1.16,13.46-1.74,20.18-2.75-.99-6.04-1.68-9.35-1.69-15.22,0-21.98,12.4-22.14,21.25-.21,11.66,10.61,21.51,23.44,22.18,4.23.2,8.7-.63,13.05-2.79,4.23,4.42,10.83,5.43,10.83,5.43,1.15.05,1.93-.67,2.57-2.1,1.44-3.12,2.88-6.26,4.32-9.41.16-.22.16-.45.16-.69.01-.69-.83-1.1-1.67-1.52ZM233.04,135.36c-4.92-.17-7.85-3.83-7.78-7.98.07-4.15,3.07-8.17,7.68-8.1,2.31.04,4.44,1.13,5.26,2.65-.08,4.81.15,8.79.63,12.19-2.17.91-4.1,1.29-5.79,1.23ZM202.45,143.08c-4.9,1.42-9.8,2.82-14.69,4.19-.39.12-.85.17-1.23.15-1.23-.06-2.14-.75-2.36-1.26-5.47-12.06-10.93-23.9-16.4-35.53-.22-.49-.45-.7-.68-.7-.62-.02-1.5,1.98-6.55,12.86,2.92.21,5.84.42,8.75.63,1,.02,1.75.81,1.74,1.72,0,.05,0,.09,0,.14-.39,4.16-.77,8.32-1.16,12.47-.09.83-.88,1.57-1.88,1.53-.05,0-.1,0-.15,0-4.74-.42-9.47-.83-14.21-1.24-1.52,3.22-2.65,5.69-2.89,6.29-.4.8-1.02,1.24-1.95,1.19-.38-.02-.77-.11-1.23-.27-3.9-1.2-7.8-2.39-11.7-3.57-1.45-.48-2.05-1.31-2.03-2.31.04-1.91,13.93-39.29,26.66-50.24.47-.35,1.63-.85,2.78-.87,3.71-.06,7.43-.12,11.14-.18,1.61-.03,2.91.66,3.2,1.29,8.58,16.47,17.16,33.42,25.73,50.84.15.3.29.74.29,1.1-.01.73-.41,1.51-1.19,1.76ZM338.48,144.49c0,.41-.17.9-.64,1.29,0,.17-6.64,6.54-6.64,6.53-.86.78-1.56,1.08-2.32,1.05-1.08-.05-13.1-3.07-13.76-18.91-.24-8.7-1.8-11.94-6.17-12.66.3,9.53.61,19.07.91,28.61-.02.96-.64,1.66-1.49,1.7-4.77.07-9.54.13-14.31.18-.05,0-.1,0-.15,0-.77-.03-1.37-.77-1.43-1.64-.16-5.56-.33-11.12-.49-16.67-.25-7.98-1.81-11.32-6.65-11.8.3,9.5.6,19.01.9,28.52-.02.94-.64,1.62-1.49,1.66-4.8.02-9.59.04-14.39.05-.05,0-.1,0-.15,0-.77-.04-1.37-.76-1.43-1.61-.41-13.42-.82-26.83-1.23-40.22,0-.05,0-.1,0-.15.01-.85.64-1.46,1.41-1.53,1.54-.07,3.08-.13,4.62-.2,3.94-1.29,7.8-1.9,11.49-1.88,3.46.02,6.68.58,9.66,1.79,4.95-1.87,9.65-2.73,13.96-2.71,13.53.02,23.3,9.1,23.9,24,.22,5.31,1,9.32,4.57,12.46.45.42,1.36,1.27,1.35,2.17ZM363.14,111.84c.43,13.57.85,27.16,1.28,40.76,0,.06,0,.11,0,.17-.01.84-.72,1.56-1.49,1.61-5.13.08-10.26.16-15.38.23-.05,0-.1,0-.15,0-.85-.03-1.45-.8-1.51-1.71-.43-13.39-.85-26.77-1.28-40.14.02-.99.64-1.72,1.57-1.8,5.13-.24,10.26-.47,15.39-.72.05,0,.1,0,.15,0,.77,0,1.45.76,1.43,1.6ZM425.73,152.9c0,.52-.25,1.04-.79,1.45,0,.18-7.71,6.07-7.71,6.06-.78.66-1.55.89-2.24.87-1.38-.06-13.61-5.08-13.37-20.28.02-.97.03-1.94.05-2.91.14-8.99-3.72-12.82-9.33-13.24-.65,10.29-1.29,20.56-1.94,30.82-.01.85-.72,1.59-1.49,1.56-.05,0-.1,0-.15,0-5.12-.47-10.24-.95-15.36-1.42-.92-.12-1.52-.9-1.51-1.9.92-14.52,1.84-29.06,2.76-43.63.09-.93.79-1.68,1.56-1.67.05,0,.1,0,.15,0,2.87.18,5.73.37,8.6.56,3.01-.66,5.86-.99,8.62-.97,15.6.04,27.27,10.83,27.02,27.42-.01.95-.03,1.9-.04,2.86-.07,4.85.87,8.77,3.97,12.16.45.45,1.21,1.34,1.2,2.29ZM364.61,96.57c-.11,6.78-5.27,12.26-11.49,12.21-6.3-.05-11.29-5.5-11.18-12.14.11-6.73,5.27-12.21,11.57-12.29,6.23-.08,11.21,5.37,11.1,12.23Z"/>
  <path class="cls-3" d="M259.16,79.57c-.17.23-.29.3-.45.26-.38-.1-7.15-5.76-7.96-7.45-.08-.13-.12-.36-.07-.56l.33-1.16c.06-.23.14-.42.4-.49l10-2.15c.14-.02.25-.02.32,0,.13.03.18.13.2.27.03.09.32,1.49.27,1.69-.05.18-.18.28-.29.3l-8.43,1.82c.98,1.03,6.28,5.59,6.46,5.74.13.12.18.24.14.39-.02.08-.06.15-.12.24l-.79,1.09Z"/>
  <path class="cls-2" d="M268.23,83.36c-.51-.13-.94-.35-1.09-.9l-2.97-12.48c-.06-.29-.06-.5-.01-.68.07-.28.27-.42.58-.47.68-.12,4.35-.63,4.88-.5.38.1.59.34.65.63l1.22,6.98c.02.14.08.21.13.22.08.02.14-.02.25-.15,1.41-1.82,3.76-5.18,4.05-5.57.24-.29.53-.38.86-.29.18.05.35.12.53.24l3.12,1.91c.54.33.7.64.61.99-.1.4-5.22,8.75-9.03,10.63-.31.14-.78.2-1.24.09l-2.56-.66Z"/>
  <path class="cls-2" d="M290.01,88.74c-1.31.07-2.55-.04-3.67-.32-3.52-.91-5.74-3.58-4.76-8.35.35-1.66,1.11-4.82,1.5-6.44.27-1.04.67-1.15.98-1.1.04-.04,4.03.69,4.46.8.51.13.64.44.59.75-.28,1.73-.59,3.11-1.21,6.17-.46,2.2.1,3.16,1.17,3.43.51.13,1.16.11,1.87-.03l2.7-8.59c.1-.3.41-.43.69-.36l4.97,1.58c.3.08.44.38.36.69l-4.07,12.99c-.1.3-.41.43-.69.36l-4.89-1.56Z"/>
  <path class="cls-2" d="M306.85,93.99c-5.75-1.48-7.62-6.15-6.63-9.99.93-3.62,4.47-6.76,10.24-5.27,6.28,1.62,5.11,7.28,4.9,8.12-.3,1.16-1.03,2-2.65,2.12-1.29.1-3.24-.11-4.57-.39-.4-.1-.49-.31-.51-.64-.09-.91-.15-2.68-.12-2.78.07-.28.31-.35.66-.34,1.39.04,1.58.03,1.68-.32.06-.23-.21-1.16-1.28-1.44-1.21-.31-2.5.49-2.91,2.06-.46,1.8.33,4.16,3.5,4.98.18.05.38.1.56.12h.05c.35.1.73.44.62.87-.07.25-1.17,1.8-1.77,2.57-.31.35-.73.62-1.46.43l-.3-.08Z"/>
  <path class="cls-2" d="M328.31,76.62c.12-.16.32-.21.5-.17.2.05,1.02.75,1.14.83.18.13.19.29.16.44-.07.28-13.56,17.96-13.84,18.32-.13.18-.33.24-.53.19-.13-.03-.69-.45-1.08-.74-.18-.15-.28-.37-.23-.57.02-.08.06-.12.1-.19l13.79-18.12Z"/>
  <g>
    <path class="cls-5" d="M83.76,137.57c-4.91,3.56-18.11,7.36-24.27,8.72-5.44.15-9.21-5.73-13.38-9.05-5.32-5.06-11.32-8.74-8.7-16.99,1.9-6.66,1.91-16.08,6.09-21.39,3.53-2.92,9.46-4.02,13.98-5.79,3.53-1.15,8.59-3.18,11.22-2.78,3.82.42,7.97,5.44,11.21,8.22,4.3,4.53,10.83,8.02,10.08,14.27-1.26,6.38-2.69,18.49-5.85,24.35l-.39.44Z"/>
    <path class="cls-11" d="M37.41,120.26c-2.62,8.25,3.37,11.93,8.7,16.99,4.15,3.3,7.9,9.13,13.29,9.04l-16.22-46.91c-3.83,5.38-3.92,14.41-5.77,20.88Z"/>
    <path class="cls-10" d="M89.92,116.32c2.62-8.25-3.37-11.93-8.7-16.99-4.15-3.3-7.9-9.13-13.29-9.04l16.22,46.91c3.83-5.38,3.92-14.41,5.77-20.88Z"/>
  </g>
  <path class="cls-18" d="M142.84,115.3l-31.68,10.59-10.59-31.68,31.68-10.59,10.59,31.68Z"/>
  <g>
    <path class="cls-14" d="M115.07,111.35l-.93-2.77,10.5-3.51.93,2.77-3.77,1.26,3.84,11.49-2.97.99-3.84-11.49-3.76,1.26Z"/>
    <path class="cls-14" d="M129.71,114.94l2.97-.99c.44.96,1.32,1.21,2.64.77.66-.22,1.12-.53,1.36-.93.25-.4.29-.84.13-1.31-.14-.42-.4-.74-.77-.95-.37-.21-.81-.29-1.32-.24l-1.62.17c-1.39.14-2.55-.05-3.46-.57-.92-.52-1.57-1.37-1.96-2.53-.2-.61-.27-1.2-.21-1.78.06-.58.25-1.12.55-1.62.3-.5.72-.95,1.26-1.35.53-.4,1.18-.72,1.93-.98,1.41-.47,2.66-.5,3.75-.08,1.09.42,1.88,1.23,2.39,2.44l-2.97.99c-.2-.42-.51-.69-.93-.83-.42-.13-.9-.1-1.46.08s-.99.48-1.22.87-.28.79-.13,1.21c.12.37.36.65.7.84.34.19.77.25,1.28.2l1.7-.17c1.38-.14,2.53.06,3.45.6.92.54,1.58,1.39,1.97,2.57.21.63.29,1.25.22,1.85-.06.6-.25,1.16-.57,1.69s-.75,1-1.3,1.41c-.55.42-1.21.76-1.97,1.01s-1.45.38-2.12.39c-.67.01-1.28-.08-1.84-.29-.55-.2-1.04-.52-1.46-.93-.42-.42-.75-.93-1-1.54Z"/>
  </g>
</svg>