<?xml version="1.0" encoding="UTF-8"?>
<svg id="_图层_1" data-name="图层 1" xmlns="http://www.w3.org/2000/svg" xmlns:xlink="http://www.w3.org/1999/xlink" viewBox="0 0 445.92 156.92">
  <defs>
    <style>
      .cls-1 {
        fill: #f33;
      }

      .cls-2 {
        fill: #1eb91e;
      }

      .cls-3 {
        fill: #00d45f;
      }

      .cls-4 {
        fill: #ff5959;
      }

      .cls-5 {
        stroke: #e7ecff;
      }

      .cls-5, .cls-6 {
        fill: #fff;
        stroke-miterlimit: 10;
      }

      .cls-7 {
        fill: url(#_未命名的渐变_302);
      }

      .cls-8 {
        fill: url(#_未命名的渐变_303);
      }

      .cls-9 {
        fill: url(#_未命名的渐变_307);
      }

      .cls-10 {
        fill: #20c11b;
      }

      .cls-11 {
        fill: #3400e9;
      }

      .cls-12 {
        fill: #f99;
      }

      .cls-6 {
        stroke: #ddd;
      }

      .cls-13 {
        fill: url(#_未命名的渐变_303-2);
      }

      .cls-14 {
        fill: #2f3747;
      }
    </style>
    <linearGradient id="_未命名的渐变_303" data-name="未命名的渐变 303" x1="11.21" y1="43.52" x2="241.44" y2="43.52" gradientTransform="translate(-1.96 4.31) rotate(-.61)" gradientUnits="userSpaceOnUse">
      <stop offset="0" stop-color="#155eff"/>
      <stop offset="1" stop-color="#0053d4"/>
    </linearGradient>
    <linearGradient id="_未命名的渐变_302" data-name="未命名的渐变 302" x1="130.26" y1="113.41" x2="437.51" y2="113.41" gradientTransform="translate(-1.96 4.31) rotate(-.61)" gradientUnits="userSpaceOnUse">
      <stop offset="0" stop-color="#155eff"/>
      <stop offset="1" stop-color="#2a8fff"/>
    </linearGradient>
    <linearGradient id="_未命名的渐变_307" data-name="未命名的渐变 307" x1="49.19" y1="65.14" x2="72.5" y2="51.13" gradientTransform="translate(21 41.94) rotate(7.63)" gradientUnits="userSpaceOnUse">
      <stop offset=".44" stop-color="#00d45f"/>
      <stop offset="1" stop-color="#20c11b"/>
    </linearGradient>
    <linearGradient id="_未命名的渐变_303-2" data-name="未命名的渐变 303" x1="98.21" y1="97.63" x2="142.7" y2="97.63" gradientTransform="translate(-1.4 4.05) rotate(-1.03)" xlink:href="#_未命名的渐变_303"/>
  </defs>
  <path class="cls-6" d="M440.89,129.18c-.54-.52-1.07-1.19-1.07-3.83v-2.63c-.02-20.21-16.1-34.87-38.26-34.85-3.14,0-6.3.3-9.62.91l-7.74-.41h-.68c-1.55-.01-3.04.33-4.41.92,0-.21.02-.41.02-.62,0-5.41-2.02-10.35-5.32-14.13l.15.03c2.46.48,4.65-.33,6.27-2.45,1.08-1.55,2.92-4.35,3.19-5.73.02-.13.04-.25.06-.38.03,0,.05,0,.07-.01.37-.05.72-.13,1.07-.22-.07.2-.16.39-.2.59-.14.71-.06,1.29,0,1.77l.86,4.98c.2,1.37,1.06,3.78,4.53,4.45l.45.09c6.5,1.27,16.1-.1,18.45-6.77.5,5.2,2.94,9.2,8.97,11.71.54.25,1.01.35,1.23.39,1.26.25,3.66.23,5.58-2.63l3.11-4.72.14-.24c.15-.27.44-.79.58-1.5.24-1.26.1-3.05-2.01-4.7,0-.05-.02-.11-.02-.19,1.84-.23,3.44-1.54,4.03-3.51l1.8-6.66.06-.28c.42-2.17-.65-4.28-2.49-5.24.14-.55.28-1.1.41-1.67.53-2.74-1.02-5.23-3.73-5.93l-7.62-1.86-.35-.07c-2.31-.45-5.06.56-5.99,3.89-.12.44-.23.87-.34,1.3-1.04.03-2.02.39-2.82,1.01-1.19-2.05-3.47-2.53-4.57-2.74-5.35-1.04-11.29-.26-14.87,2.7-1.7-3.65-5.09-6.67-10.59-7.74-6.49-1.26-11.52.31-14.99,3.24,1.4-5.7,2.53-10.36,2.64-10.91.51-2.6-1.05-5.06-3.63-5.73l-7.72-2.01-.32-.07c-2.61-.51-5.24,1.27-5.72,3.76l-1.07,4.73c-1.78-4.52-3.07-7.26-4.12-8.81-.92-1.37-2.74-2.26-4.04-2.51l-.17-.03-8.11-1.19c-2.94-.42-5.2,1.78-5.78,4.29-2.17-2.34-5.24-3.95-9.22-4.73-2.27-.44-4.45-.5-6.48-.17-2.13.35-4.06,1.1-5.75,2.24-1.68,1.13-3.1,2.63-4.22,4.46-1.07,1.74-1.84,3.79-2.29,6.1l-2.49,12.82c-.44,2.28-.49,4.47-.14,6.51.37,2.15,1.16,4.1,2.36,5.8,1.18,1.67,2.72,3.09,4.6,4.21,1.79,1.07,3.88,1.84,6.22,2.29l2.7.53c-5.19-.12-8.42,3.28-9.3,6.98-1.11,4.65,1.29,10.2,8.03,11.81l.32.08c.78.19,1.89.18,2.84-.95.02-.02,1.84-2.43,2.02-3.18.1-.43.06-.84-.09-1.19.47,0,.92,0,1.33-.05,2.06-.19,3.39-1.31,3.85-3.24.66-2.75.25-7.62-4.95-9.51l1.89-9.72,4.38.85-.02.13c-.31,2.66,1.52,5.24,4.08,5.73l.37.07,5.49.36s-.06.05-.08.08l-14.05,19.17c-.06.09-.18.28-.25.56-.16.67.1,1.39.75,1.94,1.08.78,1.31.89,1.59.95.75.18,1.5-.11,1.88-.68.14-.18,14.07-19,14.25-19.76.17-.72-.1-1.42-.67-1.81l-.13-.1c-.1-.08-.17-.13-.26-.2,2.93-.04,4.93-2.15,5.35-4.32l.04-.23.06-.87c.89,2.74,1.34,4.11,1.57,4.71.97,2.32,2.63,3.06,3.63,3.3l3.76.96c-7.69,3.3-13.09,10.94-13.08,19.83,0,4.41,1.35,8.51,3.64,11.92-.08.24-.15.48-.21.72-6.24-8.27-16.22-13.27-28.09-13.26-4.75,0-9.63.77-14.55,2.29-3.14-.83-6.47-1.24-9.95-1.24-4.52,0-9.1.7-13.64,2.08l-3.53.18-.48.04c-.09,0-.17.03-.26.04.43-5.76.79-10.45.9-11.58l.08-.54v-.99c0-.94-.12-1.88-.34-2.79l2.42.58c.71.17,1.51.09,2.18-.22,3.35-1.73,7.32-7.56,9.01-10.45-.35,1.61-.77,3.56-1.01,4.78-.97,5.17,1.3,8.94,6.07,10.08,1.21.29,2.54.39,3.96.31l4.95,1.48c.97.23,1.93-.3,2.25-1.28l4-13.62c.25-1.03-.34-2.02-1.27-2.24,0,0-5.26-1.56-5.26-1.56-.97-.23-1.93.3-2.25,1.28l-2.41,8.18c-.25.02-.47,0-.63-.03-.44-.11-.54-.79-.31-2.05l.31-1.67c.39-2.07.62-3.32.84-4.8.13-.88-.31-1.91-1.6-2.22-2.54-.61-3.95-.78-4.75-.76h0c-.48-.08-1.54-.05-2.17,1.31-.17-.41-.51-.84-1.16-1.22l-3.21-1.88c-.3-.2-.62-.34-.98-.43-.85-.2-1.65.08-2.23.82-.08.11-.3.43-.61.89-.51.75-1.29,1.89-2.05,2.97l-.94-4.83c-.19-.8-.8-1.4-1.64-1.6-1.01-.24-5.56.59-5.6.6-.69.13-1.2.54-1.46,1.1-.06-.3-.13-.58-.18-.76-.11-.66-.56-1.15-1.19-1.3-.24-.06-.51-.06-.93,0l-10.4,2.43c-.68.19-1.13.68-1.3,1.43l-.32,1.24c-.12.52-.03,1.11.19,1.45.31.61,1.29,1.67,2.5,2.84-4-.07-8.91-.15-8.91-.15-.25,0-.49.02-.74.03,2.81-4.99,4.21-10.58,4-16.43-.58-16.43-13.44-33.47-36.14-32.66-8.55.3-15.98,2.89-21.76,7.2-1.63-2.29-4.13-3.95-7.19-4.65l-.36-.07c-3.31-.63-6.67-.88-10-.77-4.64.16-9.36,1.03-14.05,2.57l-7.92.69c-.11,0-.21.03-.31.04-.59-4.61-2.45-8.47-5.01-10.06-.29-.18-2.6-1.62-4.09-.93-1.03.48-1.68,1.21-1.68,1.21-.19.21-.29.37-.58.66-.37.36-.74.7-1.26.85,0,0-.53.12-1.11-.05-1.54-.45-1.59-3.17-3.32-5.21-.57-.67-1.52-1.5-3.15-2.08-.88-.12-2.66-.24-4.63.58-1.22.51-2.08,1.2-2.63,1.71-.47.44-.79.95-.84,1.04-.32.48-.55.93-.71,1.29-.1.13-.28.31-.54.45-1.07.57-2.24-.29-3.38-.55-2.97-.66-5.89,2.79-6.11,3.05-1.28,1.55-1.7,3.2-1.86,4.12-.29,1.72-.09,3,.15,3.84.19.67.34.87.86,2.42.8,2.4.71,2.73.64,2.89-.42,1.02-1.43.97-2.56,1.85-.25.2-.97.77-1.32,1.74,0,0-.16.48-.2,1.08-5.33-4.96-12.41-8.19-20.63-9.15l-.41-11.45c-.22-6.29-5.48-11.23-11.73-11.01l-15.95.56c-3.35.12-6.31,1.69-8.32,4.08-2.54-1.62-5.92-2.37-10.14-2.23C14.25,3.78,1.65,19.41,2.16,33.68c.21,6.06,2.56,12.27,6.91,18.36.93,1.34,2.13,3.08,3.08,4.52-.1,0-.63.03-.63.03-6.29.22-11.23,5.48-11.01,11.73.02.48.06,1.64.51,3.06l2.97,11.55c1.4,5.22,6.14,8.94,11.41,9.05,1.14.06,2.1.02,2.96,0,.91-.03,1.8-.09,2.68-.16-2.43,7.91-2.87,17.52-4.85,24.95-.36,1.21-.6,2.35-.74,3.43-1.35,10.47,7.07,15.65,14.66,22.62,4.49,3.45,8.73,8.76,13.67,11.63.05.03.09.05.14.07.4.23.8.44,1.21.63.14.07.29.12.43.18.32.14.64.28.96.39.2.07.4.12.6.18.28.08.55.18.84.24.23.05.46.08.7.12.26.04.52.1.79.12.24.02.49.02.74.02.25,0,.49.03.74.02h0s.09,0,.14,0c9.49-2.27,29.8-8.52,37.29-14.16l.56-.67.03.07c5.77-8.42,5.67-22.4,8.34-32.45.71-2.38.96-4.5.86-6.43l8.02,22.65c.27.76,1.1,1.16,1.86.89l18.04-6.39c-3.2,9.43-5.14,16.94-5.14,18.89,0,5.52,3.52,10.19,8.96,11.91l12.31,3.53c1.41.44,2.76.66,4.12.66,4.85,0,9.06-2.89,10.98-7.52l.14-.34s.2-.58.29-.83l7.74.37h.63c2.42,0,4.69-.76,6.58-2.08l1.4,3.13c1.84,4.29,6.44,7.17,11.43,7.17,1.59,0,3.2-.3,4.67-.85l15.39-5.52c1.4-.56,2.64-1.38,3.69-2.38,6.04,4.94,13.89,7.94,22.47,7.93,4.15,0,8.34-.75,12.35-2.18,5.41,2.98,10.69,3.62,11.46,3.7l.51.05h.51c1.69,0,5.09-.39,8.05-3.07,2.03,2,4.79,3.22,7.83,3.22h.39s15.16-.74,15.16-.74l.41-.03c1.58-.14,3.05-.6,4.36-1.31,1.35.56,2.84.86,4.41.86h.26s15.11-.82,15.11-.82l.36-.03c3.19-.29,5.96-1.86,7.83-4.19,4.58,3.27,9.46,4.62,12.6,4.62,3.27,0,6.27-1.23,8.94-3.65l.17-.16c.26-.25.51-.48.76-.72,2.05,3.04,5.48,5,9.37,5h.4s16.2-.82,16.2-.82l.48-.04c2.3-.23,4.4-1.17,6.09-2.58,1.45.85,3.1,1.4,4.9,1.55l16.29.81h.65c4.43,0,8.27-2.57,10.1-6.3,5.55,6.32,13.06,9.17,17.04,9.17,2.92,0,5.73-.97,8.14-2.82,3.49-2.51,5.96-4.28,7.71-5.74l.02.02c3.1-2.21,4.87-5.6,4.87-9.29,0-3.49-1.61-6.79-4.53-9.33ZM84.57,84.29c.73-.91,1.32-1.94,1.74-3.04,1.8,1.69,3.73,3.05,5.64,4.13l3.37,9.53c-2.62-3.84-6.72-7.03-10.76-10.62ZM230.24,88.07c-.25,0-.5,0-.75,0-14.71.01-25.11,8.92-29.68,20.05l-15.98-32.46c-.63-1.32-1.54-2.5-2.65-3.5l-.22-2.52c6.18,9.76,17.4,15.97,30.27,15.51,6.62-.23,13.68-2.57,19.64-6.39l-.62,9.31ZM262.99,61.87c.47-.11.87-.43,1.1-.86l2.23,8.7c-1.43-1.34-3.27-2.36-5.49-2.86-1.71-1.42-3.13-2.62-4.15-3.5l6.31-1.48ZM359.68,63.67c.51,1.36,1.22,2.67,2.12,3.88-1.02-.2-2.08-.31-3.15-.36.14-.3.26-.62.34-.95.2-.72.43-1.59.68-2.57Z"/>
  <path class="cls-4" d="M299.67,49.71l2.49-12.82c.36-1.84.95-3.44,1.78-4.79.83-1.34,1.85-2.43,3.06-3.25,1.22-.82,2.61-1.36,4.18-1.62,1.57-.26,3.26-.21,5.08.14,3.39.66,5.88,1.96,7.48,3.91s2.12,4.33,1.57,7.15l-3.44,17.7-4.52-.88.72-3.91c-.59,1.32-1.37,2.27-2.33,2.86-.96.59-2.06.76-3.31.52-1.85-.36-3.08-1.18-3.7-2.47-.62-1.29-.69-3.18-.2-5.68l.63-3.26c.49-2.5,1.26-4.22,2.32-5.19,1.06-.96,2.51-1.26,4.36-.91,1.14.22,2.04.73,2.7,1.52s1.07,1.83,1.21,3.13c.04-.36.1-.86.19-1.51.08-.64.2-1.33.34-2.07l.16-.81c.29-1.46,0-2.71-.88-3.74s-2.24-1.72-4.11-2.09c-2.2-.43-4.03-.11-5.48.94-1.46,1.05-2.42,2.8-2.9,5.24l-2.49,12.82c-.46,2.39-.19,4.33.81,5.82,1,1.49,2.7,2.47,5.09,2.93l2.85.55-.87,4.48-2.85-.55c-1.9-.37-3.55-.97-4.95-1.81-1.4-.84-2.53-1.87-3.39-3.09s-1.43-2.62-1.7-4.19c-.27-1.57-.23-3.27.12-5.09ZM314.04,44.26l-.63,3.26c-.23,1.19-.23,2.14.02,2.83s.76,1.12,1.55,1.27c1.74.34,2.84-.71,3.32-3.16l.63-3.26c.48-2.44-.16-3.83-1.89-4.17-.73-.14-1.35.03-1.86.53s-.88,1.39-1.14,2.69Z"/>
  <path class="cls-1" d="M347.09,64.76c-.45-.09-.73-.57-.91-.98-.59-1.51-5.79-18.23-7.11-20.77-.12-.28-.26-.39-.38-.41-.2-.04-.32.11-.38.43l-.03.16-1.3,17.74v.04c-.1.45-.66,1.18-1.7,1.11l-7.8-.5-.12-.02c-.61-.12-.97-.86-.91-1.4l4.32-31.55.02-.08c.09-.45.56-1.37,1.38-1.25l8.01,1.18.08.02c.61.12,1.36.6,1.52.85,1.97,2.92,5.36,12.19,7.92,19.41.07.27.18.37.3.4.16.03.29-.2.36-.52l3.73-16.55c.1-.49.63-.85,1.12-.75l.08.02,7.72,2.01c.64.17.84.67.75,1.16-.21,1.06-5.82,24.04-7.86,31.5-.1.53-.63.85-1.2.74l-7.6-1.94Z"/>
  <path class="cls-12" d="M374.26,71.87c-9.24-1.8-12.65-9.01-11.44-15.19,1.13-5.82,6.43-11.12,15.71-9.32,10.09,1.96,8.79,11.04,8.53,12.39-.36,1.87-1.44,3.27-4,3.61-2.04.28-5.14.14-7.27-.19-.65-.13-.8-.45-.87-.97-.23-1.44-.49-4.23-.45-4.4.09-.45.45-.59,1-.61,2.21-.08,2.51-.1,2.62-.67.07-.37-.45-1.82-2.16-2.15-1.95-.38-3.91,1.01-4.4,3.54-.56,2.89.92,6.56,6.01,7.55.28.06.61.12.9.13l.08.02c.57.11,1.19.61,1.06,1.3-.08.41-1.68,2.97-2.56,4.23-.45.59-1.09,1.05-2.27.82l-.49-.1Z"/>
  <path class="cls-1" d="M390.6,74.96c-.9-.17-1.27-.42-1.38-1.16l-.87-5.07c-.02-.13-.03-.26-.02-.34.12-.61.95-.53,1.44-.44,2.41.43,3.77-.49,3.96-1.47.1-.53-.3-1.28-.73-2.13l-.86-1.43c-1.39-2.38-1.79-4.28-1.49-5.82.89-4.6,8-5.75,13.33-4.71,1.59.31,1.96.55,2.1,1.34l.91,5.08c.05.18.03.3,0,.42-.09.45-.57.52-1.1.42l-.16-.03c-2.44-.48-3.54.16-3.69.97-.13.69.33,1.58,1.54,3.59,1.48,2.4,1.93,4.39,1.63,5.93-.93,4.8-8.72,5.99-14.18,4.93l-.45-.09Z"/>
  <path class="cls-12" d="M421.24,79.44c-.48.71-.92,1.05-1.53.93-.12-.02-.24-.05-.36-.11-6.3-2.58-7.88-6.6-6.08-16.94l-3.02-.76c-.44-.13-.73-.61-.64-1.05l1.8-6.66c.13-.44.57-.73,1.05-.64l2.57.67c.38-1.53.79-3.18,1.25-4.91.14-.48.37-1.24,1.43-1.03l.16.03,7.62,1.86c.68.18.93.65.8,1.34-.41,1.69-.88,3.46-1.34,5.15l2.78.71c.45.09.73.57.64,1.05l-1.8,6.66c-.12.4-.52.7-.96.61l-.08-.02-2.66-.64c-.72,3.7-.78,6.61.86,7.73.41.29.86.55.78,1-.02.08-.08.2-.14.31l-3.11,4.72Z"/>
  <path class="cls-8" d="M10.05,69.92c-.09-.16-.1-.4-.1-.56-.04-1.21,1.16-1.66,1.64-1.68h.32c5.5-.21,11.38-3.33,11.2-8.42-.09-2.67-1.64-5.04-6.24-11.68-3.49-4.9-5.11-9.37-5.25-13.34-.45-12.78,13.85-20.49,27.44-20.97,3.15-.11,4.78.15,5.33,1.84l3.25,11.87c.09.24.1.48.1.64.05,1.29-1.15,1.82-1.64,1.84l-.48.02c-5.26.19-10.12,2.3-9.96,6.91.1,2.75,2.25,6.48,6.16,11.6,3.57,4.89,5.19,9.37,5.33,13.41.48,13.42-15.34,21.92-29.33,22.41-.81.03-1.54.05-2.35,0-1.05.04-2.05-.82-2.33-1.86l-3.1-12.04ZM106.5,79.7c-.86.76-1.66,1.03-2.39,1.06-.32.01-15.38-2.21-15.96-18.63-.35-9.78-5-13.1-10.82-12.9h-.4s1.04,29.37,1.04,29.37c.03.97-.67,1.72-1.56,1.76l-16.17.57c-.97.03-1.72-.67-1.76-1.64l-2.34-66.15c-.03-.89.67-1.72,1.64-1.76l16.17-.57c.89-.03,1.65.75,1.68,1.64l.74,21.03c.97-.12,1.94-.15,2.83-.18,15.2-.54,27.65,8.09,28.46,24.09.27,5.25,1.46,9.26,5.54,12.27.5.39,1.42,1.16,1.45,2.05.01.4-.13.9-.68,1.4l-7.46,6.58ZM155.84,78.12c-.97.03-1.8-.58-1.84-1.55l-3.75-41.97c-.03-.97.66-1.81,1.55-1.84l9.36-.82c4.32-1.53,8.5-2.33,12.54-2.47,2.75-.1,5.43.13,7.96.61,1.22.28,1.73.91,1.77,1.88.01.32-.06.65-.12,1.06l-1.94,11.49c-.2,1.14-.99,1.74-1.96,1.77-.24,0-.57-.06-.9-.13-1.31-.36-2.69-.55-4.07-.5-1.13.04-2.26.24-3.54.61l2.55,28.57v.16c.04.89-.66,1.64-1.55,1.67l-16.06,1.46ZM213.36,76.89c-13.18.47-25.08-8.67-25.59-22.9-.59-16.66,11.56-25.75,25.79-26.26,17.87-.63,26.05,13.09,26.42,23.6.56,15.77-15.14,25.15-26.63,25.56ZM222.76,51.78c-.05-1.54-.66-9.37-8.9-9.08-6.79.24-8.53,6.05-8.4,9.69.2,5.58,4.7,9.15,9.31,8.98,5.74-.2,8.16-4.99,8-9.59Z"/>
  <path class="cls-11" d="M112.39,30.15c-.2.16-.76.61-1.01,1.42,0,0-.16.51-.13,1.12.19,3.37,4.13,8.62,4.13,8.62,4.22,5.9,4.91,12.64,5.67,20.32.3,3.06.31,5.65.23,7.59,1.75,1.85,3.39,2.64,4.5,3.02,4.35,1.49,7.27-1.01,12.89.07,1.83.35,3.27.95,4.14,1.37,1.01-7.01,1.18-12.79,1.16-16.81-.06-9.52-1.29-11.4-.12-17.51,1.06-5.54,2.62-6.88,2.29-11.83-.32-4.74-2.13-8.96-4.6-10.62-.24-.16-2.15-1.45-3.33-.92-.82.37-1.31.96-1.31.96-.15.17-.22.3-.45.53-.29.29-.58.56-.99.68,0,0-.42.09-.9-.07-1.26-.43-1.38-2.72-2.85-4.49-.48-.58-1.27-1.31-2.61-1.85-.71-.13-2.15-.29-3.71.33-.96.39-1.64.94-2.07,1.36-.36.36-.6.78-.65.84-.25.39-.41.76-.53,1.06-.08.1-.22.25-.42.36-.85.45-1.81-.32-2.75-.57-2.42-.65-4.66,2.16-4.83,2.37-.98,1.26-1.27,2.64-1.37,3.41-.18,1.44.03,2.52.24,3.24.17.57.3.74.77,2.07.72,2.05.66,2.32.61,2.46-.3.85-1.12.77-2.01,1.47Z"/>
  <path class="cls-7" d="M262.73,131.76c-3.32-1.51-4.29-6.44-4.3-13.03,0-5.53,2.56-39.17,2.72-40.25,0-.08,0-.16,0-.24,0-1.13-.65-2.16-2.91-2.09-4.67.07-9.33.14-14,.21-1.62.05-2.91.89-2.99,2.24-.48,7.09-.96,14.18-1.44,21.25-2.91-1-6.39-1.67-9.87-1.63-16.02.25-22.89,13.4-22.88,22.72,0,12.28,11.59,22.5,25.1,22.99,4.45.14,9.14-.81,13.67-3.16,4.53,4.58,11.49,5.54,11.49,5.53,1.21.04,2.02-.74,2.67-2.26,1.45-3.32,2.91-6.65,4.36-9.99.16-.24.16-.48.16-.72,0-.73-.89-1.15-1.78-1.57ZM234,129.66c-5.18-.1-8.34-3.91-8.34-8.27,0-4.37,3.07-8.65,7.92-8.65,2.43,0,4.69,1.11,5.59,2.7,0,5.06.33,9.26.9,12.83-2.26.99-4.29,1.43-6.07,1.4ZM201.96,138.27c-5.12,1.58-10.25,3.12-15.37,4.63-.4.14-.89.19-1.29.18-1.29-.05-2.27-.76-2.51-1.29-6-12.63-11.99-25.02-17.99-37.18-.24-.51-.49-.73-.73-.73-.65-.01-1.54,2.1-6.63,13.62,3.08.18,6.15.36,9.23.55,1.05.01,1.86.83,1.86,1.79,0,.05,0,.1,0,.15-.32,4.39-.64,8.77-.96,13.15-.08.88-.89,1.67-1.94,1.63-.05,0-.11,0-.16,0-4.99-.37-9.98-.74-14.97-1.12-1.53,3.42-2.67,6.03-2.91,6.67-.4.85-1.05,1.32-2.02,1.28-.4-.02-.81-.1-1.29-.27-4.13-1.22-8.26-2.42-12.38-3.62-1.54-.48-2.19-1.35-2.19-2.41,0-2.03,13.8-41.53,26.98-53.2.49-.38,1.7-.92,2.91-.96,3.91-.11,7.82-.23,11.73-.34,1.7-.05,3.08.65,3.4,1.31,9.37,17.18,18.75,34.9,28.12,53.12.16.31.32.77.32,1.15,0,.76-.4,1.59-1.21,1.87ZM345.11,137.31c0,.43-.16.95-.65,1.37,0,.18-6.87,7.03-6.87,7.02-.89.84-1.62,1.17-2.43,1.15-1.13-.03-13.84-2.98-14.82-19.65-.41-9.15-2.11-12.54-6.73-13.21.49,10.03.98,20.07,1.48,30.12,0,1.01-.65,1.76-1.54,1.82-5.02.16-10.03.32-15.05.47-.05,0-.11,0-.16,0-.81-.02-1.46-.79-1.54-1.7-.27-5.86-.55-11.71-.82-17.56-.41-8.4-2.11-11.89-7.21-12.3.49,10,.98,20.01,1.48,30.03,0,.99-.65,1.72-1.54,1.78-5.04.11-10.09.21-15.13.31-.05,0-.11,0-.16,0-.81-.02-1.46-.78-1.54-1.67-.68-14.14-1.37-28.25-2.05-42.34,0-.05,0-.11,0-.16,0-.89.65-1.55,1.46-1.64,1.62-.1,3.24-.2,4.85-.29,4.13-1.43,8.17-2.14,12.06-2.19,3.64-.05,7.04.49,10.2,1.7,5.18-2.06,10.11-3.05,14.65-3.12,14.24-.24,24.69,9.12,25.59,24.79.33,5.58,1.22,9.79,5.03,13.03.49.44,1.46,1.31,1.46,2.26ZM370.49,102.43c.68,14.27,1.37,28.57,2.05,42.88,0,.06,0,.12,0,.18,0,.88-.73,1.66-1.54,1.73-5.39.2-10.79.38-16.18.56-.05,0-.11,0-.16,0-.89-.02-1.54-.81-1.62-1.77-.68-14.1-1.37-28.18-2.05-42.23,0-1.04.65-1.83,1.62-1.93,5.39-.35,10.79-.71,16.18-1.07.05,0,.11,0,.16,0,.81-.01,1.54.77,1.54,1.65ZM437.07,144.28c0,.55-.24,1.1-.81,1.55,0,.19-8.01,6.57-8.01,6.56-.81.72-1.62.98-2.35.96-1.46-.03-14.41-5.04-14.42-21.05,0-1.02,0-2.04,0-3.06,0-9.47-4.14-13.41-10.04-13.74-.51,10.84-1.01,21.67-1.52,32.49,0,.9-.73,1.69-1.54,1.68-.05,0-.11,0-.16,0-5.39-.39-10.79-.78-16.18-1.17-.97-.11-1.62-.91-1.62-1.97.72-15.31,1.44-30.64,2.15-45.99.08-.98.81-1.78,1.62-1.79.05,0,.11,0,.16,0,3.02.13,6.04.27,9.06.4,3.15-.76,6.15-1.16,9.06-1.21,16.43-.3,28.89,10.79,28.91,28.25,0,1,0,2.01,0,3.01,0,5.1,1.06,9.21,4.38,12.71.49.46,1.3,1.38,1.3,2.39ZM371.77,86.33c0,7.13-5.33,13-11.89,13.08-6.64.08-11.98-5.56-11.99-12.55,0-7.08,5.33-12.95,11.97-13.17,6.55-.22,11.9,5.42,11.9,12.63Z"/>
  <path class="cls-14" d="M260.43,70.48c-.17.24-.3.32-.46.29-.4-.1-7.64-5.92-8.52-7.69-.08-.13-.14-.37-.09-.59l.32-1.22c.06-.24.14-.45.41-.52l10.48-2.45c.15-.02.26-.02.34,0,.13.03.19.13.22.28.03.09.36,1.56.31,1.77-.04.19-.18.3-.3.32l-8.84,2.08c1.05,1.07,6.72,5.76,6.9,5.92.14.12.2.24.16.41-.02.08-.07.15-.12.25l-.81,1.16Z"/>
  <path class="cls-2" d="M270.05,74.3c-.54-.13-.99-.35-1.16-.93l-3.36-13.08c-.07-.3-.07-.53-.03-.71.07-.29.28-.44.6-.51.71-.14,4.56-.75,5.13-.62.4.1.62.35.69.65l1.42,7.33c.02.15.09.22.14.23.08.02.15-.02.27-.16,1.45-1.94,3.86-5.53,4.16-5.94.24-.31.55-.41.9-.32.19.04.37.12.56.25l3.32,1.95c.57.33.75.66.66,1.03-.1.43-5.33,9.31-9.3,11.36-.32.15-.82.23-1.3.11l-2.7-.64Z"/>
  <path class="cls-2" d="M292.62,79.55c-1.38.1-2.69,0-3.87-.27-3.72-.89-6.11-3.66-5.17-8.7.33-1.76,1.07-5.09,1.45-6.81.26-1.1.69-1.22,1.02-1.17.04-.05,4.26.65,4.71.76.54.13.69.45.64.77-.27,1.83-.56,3.29-1.16,6.51-.44,2.33.17,3.32,1.29,3.59.54.13,1.22.09,1.97-.07l2.68-9.09c.1-.31.42-.47.72-.39l5.26,1.56c.32.08.47.4.39.72l-4.04,13.74c-.1.31-.42.47-.72.39l-5.18-1.55Z"/>
  <path class="cls-2" d="M310.9,84.59c-6.08-1.45-8.14-6.32-7.17-10.39.91-3.83,4.57-7.2,10.68-5.74,6.64,1.58,5.52,7.57,5.31,8.45-.29,1.23-1.04,2.13-2.75,2.29-1.36.13-3.41-.05-4.82-.33-.43-.1-.52-.32-.55-.67-.11-.96-.2-2.82-.18-2.93.07-.29.32-.38.68-.37,1.47.01,1.67,0,1.76-.37.06-.24-.25-1.22-1.37-1.49-1.28-.31-2.62.56-3.02,2.22-.45,1.9.43,4.37,3.77,5.17.19.04.4.1.6.11h.05c.37.1.77.45.66.91-.06.27-1.19,1.92-1.81,2.74-.32.38-.75.67-1.53.48l-.32-.08Z"/>
  <path class="cls-2" d="M332.62,66.07c.12-.17.34-.23.53-.19.21.05,1.09.77,1.21.85.19.13.21.3.17.47-.07.29-13.93,19.16-14.22,19.55-.13.19-.34.26-.56.21-.13-.03-.74-.46-1.15-.75-.19-.16-.3-.38-.25-.6.02-.08.06-.13.1-.2l14.17-19.33Z"/>
  <path class="cls-3" d="M76.92,134.84c-5.1,3.84-18.92,8.09-25.38,9.64-5.72.27-9.8-5.86-14.25-9.28-5.7-5.23-12.08-8.98-9.47-17.72,1.88-7.05,1.71-16.96,6.01-22.62,3.66-3.14,9.88-4.41,14.61-6.36,3.69-1.28,8.98-3.51,11.75-3.14,4.03.37,8.49,5.58,11.95,8.44,4.61,4.68,11.55,8.24,10.88,14.83-1.2,6.74-2.48,19.51-5.7,25.73l-.4.47Z"/>
  <path class="cls-10" d="M27.81,117.5c-2.61,8.74,3.77,12.49,9.47,17.72,4.43,3.4,8.49,9.46,14.16,9.27l-17.96-49.07c-3.93,5.73-3.86,15.24-5.68,22.08Z"/>
  <path class="cls-9" d="M83.01,112.35c2.61-8.74-3.77-12.49-9.47-17.72-4.43-3.4-8.49-9.46-14.16-9.27l17.96,49.07c3.93-5.73,3.86-15.24,5.68-22.08Z"/>
  <path class="cls-13" d="M143.23,110.2l-33.15,11.74-11.74-33.15,33.15-11.74,11.74,33.15Z"/>
  <g>
    <path class="cls-5" d="M129.96,37.58c-.14.12-.31.27-.41.35-.54.43-1.36.79-2.15.84-1.46.09-2.66-.94-2.91-1.15-2.27-1.94-2.16-5.48-2.12-6.43.04-1.2.13-3.89,2.18-5.67,1.91-1.66,4.73-1.84,7.11-.75,2.86,1.31,4.4,4.14,4.82,6.35.14.76.43,2.3-.36,3.62-.11.19-.87,1.4-2.28,1.69-1.26.25-2.01-.44-2.76.15-.18.14-.39.38-1.12,1.01Z"/>
    <ellipse class="cls-5" cx="116.52" cy="33.45" rx="2.5" ry="2.8" transform="translate(-.71 64.34) rotate(-30.78)"/>
    <ellipse class="cls-5" cx="118.11" cy="21.48" rx="2.5" ry="2.8" transform="translate(5.64 63.46) rotate(-30.78)"/>
    <ellipse class="cls-5" cx="127.51" cy="17.24" rx="2.5" ry="2.8" transform="translate(9.14 67.68) rotate(-30.78)"/>
    <ellipse class="cls-5" cx="139.58" cy="23.47" rx="2.5" ry="2.8" transform="translate(7.65 74.73) rotate(-30.78)"/>
    <path class="cls-5" d="M109.38,106.65l-1.03-2.9,10.99-3.89,1.03,2.9-3.94,1.4,4.26,12.02-3.11,1.1-4.26-12.02-3.94,1.4Z"/>
    <path class="cls-5" d="M124.85,110.15l3.11-1.1c.48,1,1.41,1.25,2.79.76.69-.24,1.16-.58,1.42-1,.25-.42.29-.89.12-1.38-.16-.44-.43-.77-.83-.99-.4-.22-.86-.29-1.4-.23l-1.7.21c-1.46.18-2.68,0-3.66-.54-.97-.53-1.68-1.41-2.11-2.62-.23-.64-.31-1.26-.25-1.87.06-.61.24-1.18.55-1.71.31-.53.74-1.01,1.3-1.44.56-.43,1.23-.78,2.01-1.06,1.48-.52,2.79-.58,3.94-.16,1.15.42,2.01,1.26,2.56,2.52l-3.11,1.1c-.22-.44-.55-.72-.99-.85-.44-.13-.95-.09-1.54.11s-1.03.53-1.27.94-.28.84-.12,1.28c.14.39.39.68.75.87.36.19.81.25,1.35.19l1.79-.21c1.45-.17,2.66.02,3.64.57.98.55,1.69,1.44,2.12,2.67.23.66.32,1.31.27,1.95-.05.63-.24,1.23-.57,1.79s-.77,1.06-1.34,1.51c-.57.45-1.26.82-2.06,1.1s-1.51.42-2.22.45c-.71.03-1.35-.07-1.94-.27-.59-.21-1.1-.52-1.55-.96-.45-.43-.81-.97-1.08-1.6Z"/>
  </g>
</svg>