<?xml version="1.0" encoding="UTF-8"?>
<svg id="_图层_1" data-name="图层 1" xmlns="http://www.w3.org/2000/svg" xmlns:xlink="http://www.w3.org/1999/xlink" viewBox="0 0 447.63 189.21">
  <defs>
    <style>
      .cls-1 {
        fill: #f33;
      }

      .cls-2 {
        fill: #1eb91e;
      }

      .cls-3 {
        fill: #2f3747;
        stroke: #2f3747;
      }

      .cls-3, .cls-4 {
        stroke-miterlimit: 10;
      }

      .cls-5 {
        fill: #00d45f;
      }

      .cls-6 {
        fill: #e2e2e2;
      }

      .cls-7, .cls-4 {
        fill: #efefef;
      }

      .cls-8 {
        fill: #ff5959;
      }

      .cls-9 {
        fill: url(#_未命名的渐变_302);
      }

      .cls-10 {
        fill: url(#_未命名的渐变_303);
      }

      .cls-11 {
        fill: url(#_未命名的渐变_307);
      }

      .cls-12 {
        fill: #20c11b;
      }

      .cls-13 {
        fill: #3400e9;
      }

      .cls-14 {
        fill: #fff;
      }

      .cls-15 {
        fill: #f9f9f9;
      }

      .cls-16 {
        fill: #f2f2f2;
      }

      .cls-17 {
        fill: #f99;
      }

      .cls-4 {
        stroke: #efefef;
      }

      .cls-18 {
        fill: url(#_未命名的渐变_303-2);
      }
    </style>
    <linearGradient id="_未命名的渐变_303" data-name="未命名的渐变 303" x1="22.56" y1="51.56" x2="241.27" y2="51.56" gradientTransform="translate(-1.59 2.8) rotate(-.23)" gradientUnits="userSpaceOnUse">
      <stop offset="0" stop-color="#155eff"/>
      <stop offset="1" stop-color="#0053d4"/>
    </linearGradient>
    <linearGradient id="_未命名的渐变_302" data-name="未命名的渐变 302" x1="135.63" y1="117.99" x2="427.56" y2="117.99" gradientTransform="translate(-1.59 2.8) rotate(-.23)" gradientUnits="userSpaceOnUse">
      <stop offset="0" stop-color="#155eff"/>
      <stop offset="1" stop-color="#2a8fff"/>
    </linearGradient>
    <linearGradient id="_未命名的渐变_307" data-name="未命名的渐变 307" x1="58.14" y1="68.43" x2="80.28" y2="55.12" gradientTransform="translate(21.55 40.79) rotate(8.01)" gradientUnits="userSpaceOnUse">
      <stop offset=".44" stop-color="#00d45f"/>
      <stop offset="1" stop-color="#20c11b"/>
    </linearGradient>
    <linearGradient id="_未命名的渐变_303-2" data-name="未命名的渐变 303" x1="100.8" y1="103.07" x2="143.07" y2="103.07" gradientTransform="translate(-1.05 2.54) rotate(-.65)" xlink:href="#_未命名的渐变_303"/>
  </defs>
  <path class="cls-6" d="M443.06,142.36c-.55-.58-1.08-1.33-1.08-4.27v-2.93c.04-22.47-16.27-38.84-38.78-38.92-3.19-.01-6.4.31-9.78.98l-7.87-.49-.69-.02c-1.58,0-3.09.37-4.48,1.02,0-.23.02-.45.02-.68,0-4.2-.98-8.15-2.71-11.59.19-.08.37-.16.56-.26,1.54,1.85,3.79,3.36,6.93,3.99l.42.09c5.12,1.03,11.31.74,16.39-1.55,2.02,2.49,4.77,4.49,8.23,5.97,1.06.49,1.97.71,2.57.83,4.68.94,9.19-1,12.07-5.24l3-4.49.36-.59c.26-.45.95-1.66,1.3-3.38.27-1.33.29-2.65.07-3.93.77-1.05,1.37-2.26,1.77-3.57l1.76-6.35.17-.69c.6-2.99-.05-6.05-1.7-8.5.19-5.28-3.22-9.99-8.57-11.4l-7.26-1.82-.6-.13c-3.75-.76-8.09.38-10.93,3.75-.92-.31-1.69-.47-2.13-.55-4.64-.93-9.34-.71-13.37.56-2.37-2.34-5.81-4.5-10.79-5.5-2.19-.44-4.33-.63-6.4-.56.67-5.57-2.77-10.7-8.3-12.18l-7.35-1.97-.67-.15c-2.49-.5-5.05-.14-7.31,1.02-2.04-2.17-4.79-3.38-7.05-3.84l-8-1.24c-2.74-.41-5.42.2-7.66,1.63-1.89-.93-3.99-1.62-6.27-2.08-2.92-.59-5.77-.67-8.47-.25-2.96.47-5.68,1.51-8.09,3.11-2.39,1.59-4.4,3.68-5.98,6.21-1.44,2.32-2.48,4.99-3.07,7.95l-2.45,12.16c-.59,2.95-.67,5.82-.21,8.55.5,3.01,1.6,5.76,3.29,8.2.22.31.47.6.7.9l-2.44,8.97c-.26.02-.48,0-.64-.04-.45-.12-.55-.88-.3-2.28l.32-1.85c.4-2.3.64-3.69.86-5.33.14-.98-.31-2.12-1.63-2.47-2.58-.69-4.01-.89-4.83-.87h0c-.49-.09-1.56-.07-2.21,1.44-.17-.45-.51-.93-1.17-1.35l-3.26-2.11c-.31-.23-.63-.39-.99-.48-.86-.23-1.68.08-2.27.9-.08.12-.31.48-.62.98-.52.83-1.32,2.09-2.09,3.29l-.94-5.38c-.19-.89-.81-1.56-1.67-1.79-1.03-.27-5.65.63-5.7.64-.7.15-1.22.59-1.49,1.22-.06-.34-.13-.65-.18-.85-.11-.73-.57-1.29-1.2-1.45-.25-.07-.52-.07-.94,0l-10.57,2.66c-.51.15-.88.49-1.12.98.66-3,.97-6.12.87-9.31-.55-18.28-13.58-37.27-36.64-36.48-8.7.3-16.25,3.14-22.14,7.91-1.65-2.55-4.18-4.41-7.29-5.2l-.37-.08c-3.36-.71-6.78-1.01-10.16-.89-4.72.16-9.52,1.1-14.29,2.79l-8.05.73c-.11,0-.21.03-.32.04-.59-5.13-2.47-9.43-5.07-11.21-.3-.2-2.64-1.81-4.16-1.05-1.05.52-1.71,1.33-1.71,1.33-.19.24-.29.41-.59.73-.38.4-.76.77-1.29.94,0,0-.54.14-1.13-.05-1.57-.51-1.6-3.53-3.36-5.8-.58-.75-1.54-1.67-3.2-2.32-.89-.14-2.7-.28-4.7.62-1.24.56-2.12,1.32-2.68,1.89-.48.49-.8,1.06-.86,1.15-.33.53-.56,1.03-.72,1.43-.11.14-.29.34-.55.5-1.09.63-2.27-.34-3.44-.62-3.01-.74-6,3.08-6.22,3.36-1.31,1.72-1.74,3.55-1.9,4.57-.3,1.92-.1,3.33.14,4.27.19.75.34.97.86,2.7.81,2.67.71,3.04.64,3.22-.43,1.13-1.46,1.07-2.61,2.04-.26.22-.98.85-1.35,1.93,0,0-.18.53-.21,1.19-5.41-5.53-12.59-9.15-20.93-10.26l-.38-12.73C85.57,5.3,80.23-.21,73.89,0l-16.22.56c-3.41.12-6.42,1.85-8.47,4.5-2.58-1.82-6.01-2.67-10.3-2.52C14.15,3.39,1.3,20.72,1.78,36.59c.2,6.74,2.57,13.66,6.97,20.45.95,1.5,2.16,3.43,3.11,5.04-.1,0-.64.03-.64.03C4.83,62.32-.2,68.15,0,75.1c.02.53.05,1.83.51,3.41l2.99,12.85c1.41,5.81,6.22,9.97,11.57,10.11.1,0,.19,0,.28.01-1.36,7.79-2.09,16.02-3.76,22.79-.41,1.5-.69,2.93-.86,4.28-1.57,13.07,8.02,19.58,16.66,28.31,5.58,4.72,10.81,12.22,17.12,15.49.02,0,.04.02.05.03.24.12.48.24.73.35.06.03.11.05.17.07.21.09.41.18.62.26.09.04.18.07.27.1.18.07.36.13.54.19.11.04.23.07.34.1.16.05.32.1.49.14.13.03.26.06.39.09.15.03.3.07.45.1.14.03.28.04.42.06.14.02.29.04.43.06.15.02.29.02.44.03.14.01.29.02.43.03.15,0,.3,0,.44,0,.12,0,.25,0,.37,0h0c.05,0,.1,0,.15,0,10.84-2.79,34.03-10.49,42.6-17.5l.64-.83.03.09c3.95-6.26,5.51-15.01,6.79-23.71l.81,2.53c.49,1.54,2.03,2.35,3.43,1.81l17.89-6.85c-3.5,11.03-5.65,19.93-5.65,22.18-.01,6.14,3.55,11.35,9.08,13.29l12.5,3.98c1.43.5,2.8.75,4.19.75,4.93.02,9.21-3.17,11.18-8.32l.14-.38s.21-.64.3-.92l7.87.45.64.02c2.46,0,4.77-.83,6.69-2.29l1.41,3.48c1.86,4.78,6.52,8.01,11.6,8.02,1.62,0,3.25-.31,4.75-.93l15.65-6.08c1.43-.62,2.69-1.52,3.76-2.64,6.13,5.52,14.1,8.89,22.81,8.92,4.22.02,8.48-.79,12.56-2.37,5.49,3.34,10.85,4.08,11.64,4.17l.51.06h.52c1.72,0,5.17-.41,8.19-3.38,2.06,2.24,4.86,3.61,7.95,3.62h.4s15.41-.75,15.41-.75l.42-.03c1.6-.15,3.1-.66,4.44-1.44,1.37.63,2.89.97,4.48.98h.27s15.36-.85,15.36-.85l.36-.03c3.25-.31,6.06-2.05,7.97-4.63,4.64,3.66,9.6,5.18,12.79,5.19,3.32.01,6.38-1.34,9.09-4.02l.18-.18c.27-.28.52-.54.77-.8,2.07,3.39,5.55,5.59,9.51,5.6h.41s16.47-.84,16.47-.84l.49-.04c2.34-.25,4.47-1.28,6.2-2.84,1.47.95,3.15,1.57,4.97,1.74l16.55.97.66.02c4.5.02,8.41-2.83,10.29-6.98,5.63,7.05,13.24,10.26,17.29,10.27,2.97.01,5.83-1.06,8.28-3.1,3.55-2.77,6.07-4.74,7.85-6.34l.02.03c3.15-2.45,4.97-6.21,4.98-10.3,0-3.88-1.62-7.56-4.58-10.4ZM262.42,66.74c.48-.12.88-.48,1.12-.95l2.25,9.68c-1.45-1.5-3.31-2.63-5.58-3.21-1.73-1.59-3.17-2.93-4.21-3.91l6.42-1.62ZM249.22,68.57c.31.68,1.3,1.87,2.54,3.16-1.41-.03-2.94-.07-4.32-.1.61-1.41,1.13-2.87,1.56-4.35-.04.48.05.98.23,1.29ZM228.3,95.71c-14.95-.05-25.54,9.81-30.22,22.16l-14.76-33.04c.28-1.18.41-2.42.37-3.7v-.29s-.28-3.49-.28-3.49c6.25,10.89,17.64,17.83,30.72,17.38,5.05-.17,10.36-1.67,15.27-4.18l-.33,5.17c-.25,0-.51-.01-.76-.01ZM311.61,96.09c-4.83-.02-9.79.82-14.79,2.49-3.19-.93-6.58-1.41-10.11-1.42-4.6-.02-9.25.74-13.87,2.25l-3.59.18-.49.04c-.09,0-.18.03-.27.04.45-6.4.83-11.62.95-12.87l.09-.6v-1.1c0-1.04-.12-2.09-.34-3.11l2.45.65c.72.19,1.53.11,2.21-.24,3.41-1.91,7.46-8.37,9.19-11.58-.36,1.79-.8,3.96-1.04,5.31-1,5.75,1.29,9.95,6.14,11.23,1.22.33,2.58.45,4.03.37l5.03,1.66c.98.26,1.96-.33,2.29-1.42l3.16-11.65c.36.16.72.32,1.09.47-.71,1.09-1.22,2.32-1.49,3.58-1.14,5.17,1.28,11.35,8.13,13.17l.32.09c.79.21,1.92.21,2.89-1.05.02-.03,1.87-2.7,2.06-3.53.11-.48.06-.93-.09-1.32.47,0,.93,0,1.35-.05,2.09-.2,3.45-1.44,3.92-3.59.21-.95.31-2.14.2-3.38l.09.02.99-4.92c.76.35,1.57.61,2.42.78l.76.15,2.77.2-10.17,15.08c-.06.1-.19.31-.26.62-.17.75.1,1.55.76,2.16,1.09.87,1.33.99,1.61,1.07.76.2,1.53-.12,1.91-.75.1-.15,7.82-11.48,11.97-17.79,1.31.04,2.59-.13,3.81-.49,1.41,1.38,3.13,2.35,5.02,2.8l.58.15c-4.07,4.34-6.6,10.39-6.61,17.08,0,4.9,1.35,9.47,3.67,13.27-.08.26-.15.53-.22.8-6.32-9.22-16.45-14.83-28.52-14.87Z"/>
  <path class="cls-7" d="M421.79,59.06c.08-.31.16-.63.24-.97.63-3.11-1.14-5.94-4.2-6.75l-7.26-1.82-.34-.07c-2.61-.53-5.73.6-6.81,4.32l-.16.6c-.59.09-1.16.29-1.68.56-1.39-1.65-3.45-2.1-4.41-2.29-4.89-.99-10.29-.42-13.98,1.98-1.83-3.26-5.12-5.9-10.18-6.92s-9.6-.24-12.92,1.67c1.07-4.26,1.87-7.5,1.96-7.93.6-2.96-1.16-5.78-4.09-6.56l-7.35-1.97-.33-.07c-1.43-.29-2.92,0-4.18.83-1.24.81-2.11,2.07-2.38,3.42l-.37,1.58c-1.13-2.73-2.05-4.6-2.84-5.78-1.02-1.53-2.95-2.52-4.42-2.81l-.18-.04-7.72-1.19c-2.71-.41-4.91,1.18-6.01,3.29-2.09-1.83-4.82-3.11-8.2-3.79-2.26-.46-4.44-.52-6.48-.2-2.16.34-4.12,1.09-5.85,2.24-1.71,1.14-3.17,2.65-4.31,4.49-1.09,1.74-1.87,3.79-2.33,6.09l-2.45,12.16c-.46,2.27-.52,4.47-.18,6.52.36,2.18,1.15,4.16,2.36,5.9,1.18,1.71,2.74,3.15,4.63,4.3,1.78,1.08,3.87,1.86,6.19,2.33l7.3,1.47,1.87-9.27,2.45.49c.03,2.72,1.95,5.21,4.6,5.75l.41.08,7.67.55c2.66.21,4.71-1.14,5.81-2.89.27.83.44,1.35.57,1.68,1.08,2.64,3.02,3.46,4.06,3.71l7.18,1.89.24.05c2.98.6,5.88-1.2,6.6-4.08,2.28,4.02,6.42,7.31,12.63,8.56l.46.09c2.71.55,5.15-.39,6.92-2.66,1.06-1.5,1.83-2.74,2.38-3.77l.72,4.33c.18,1.25,1.02,4.24,5.02,5.05l.42.09c5.63,1.13,13.61.26,17.26-4.41.95,3.66,3.33,6.98,8.54,9.19.62.29,1.16.4,1.38.45,1.15.23,4.06.42,6.28-2.86l3-4.49.16-.25c.16-.28.5-.87.67-1.7.23-1.17.18-2.78-1.13-4.35,1.44-.65,2.57-1.93,3.07-3.55l1.76-6.35.07-.3c.43-2.15-.45-4.36-2.17-5.61Z"/>
  <g>
    <g>
      <path class="cls-7" d="M98.16,150.83c-8.29,6.4-30.71,13.39-41.18,15.92-9.27.38-15.8-9.97-22.96-15.76-9.17-8.86-19.45-15.24-15.14-29.9,3.11-11.82,2.94-28.5,9.96-37.97,5.95-5.23,16.04-7.31,23.71-10.52,5.98-2.11,14.56-5.79,19.05-5.14,6.51.67,13.68,9.47,19.26,14.32,7.42,7.93,18.61,13.98,17.45,25.06-2.02,11.31-4.22,32.78-9.49,43.2l-.65.79Z"/>
      <path class="cls-7" d="M18.87,121.12c-4.31,14.66,5.98,21.04,15.14,29.9,7.13,5.76,13.63,16.01,22.82,15.74l-28.54-82.7c-6.42,9.59-6.4,25.59-9.42,37.06Z"/>
      <path class="cls-7" d="M108.23,113.09c4.31-14.66-5.98-21.04-15.14-29.9-7.13-5.76-13.63-16.01-22.82-15.74l28.54,82.7c6.42-9.59,6.4-25.59,9.42-37.06Z"/>
    </g>
    <g>
      <path class="cls-7" d="M89.54,142.72c-6.31,4.87-23.38,10.2-31.35,12.12-7.06.29-12.03-7.59-17.49-12-6.98-6.74-14.81-11.6-11.53-22.76,2.37-9,2.24-21.7,7.58-28.91,4.53-3.98,12.21-5.56,18.05-8.01,4.56-1.6,11.09-4.41,14.51-3.91,4.96.51,10.42,7.21,14.66,10.9,5.65,6.04,14.17,10.64,13.29,19.08-1.54,8.62-3.21,24.96-7.23,32.89l-.49.6Z"/>
      <path class="cls-7" d="M29.16,120.1c-3.28,11.16,4.55,16.02,11.53,22.76,5.43,4.39,10.38,12.19,17.38,11.99l-21.73-62.97c-4.89,7.3-4.88,19.48-7.17,28.22Z"/>
      <path class="cls-7" d="M97.21,113.99c3.28-11.16-4.55-16.02-11.53-22.76-5.43-4.39-10.38-12.19-17.38-11.99l21.73,62.97c4.89-7.3,4.88-19.48,7.17-28.22Z"/>
    </g>
    <path class="cls-7" d="M147.61,118.71l-38.09,13.72c-1.36.49-2.84-.26-3.31-1.67l-13.21-39.58c-.47-1.41.25-2.95,1.6-3.44l38.09-13.72c1.36-.49,2.84.26,3.31,1.67l13.21,39.58c.47,1.41-.25,2.95-1.6,3.44Z"/>
    <path class="cls-4" d="M146.09,163.1c-1.34,0-2.66-.24-4.04-.7l-12.05-3.69c-5.33-1.79-8.75-6.58-8.72-12.2.03-5.45,14.68-53.42,29.57-67.68l.2-.19.21-.18c2.35-2.01,5.78-3.24,8.95-3.22l11.35.07c5.17.03,9.89,2.93,11.85,7.24l26.82,57.54c.57,1.2,1.27,3.2,1.26,5.61-.03,5.02-2.87,9.42-7.24,11.2l-15.13,5.53c-1.45.56-3.02.85-4.58.84-4.9-.03-9.39-3-11.17-7.39l-1.35-3.2c-1.86,1.33-4.09,2.1-6.46,2.08l-.62-.02-7.59-.43c-.09.26-.29.85-.29.85l-.14.35c-1.92,4.71-6.06,7.62-10.82,7.59Z"/>
    <path class="cls-4" d="M265.38,131.8c-.15-.85-.32-2.4-.3-5.05.03-4.77,2.48-36.08,2.8-39.27l.08-.55v-1c.04-6.02-4.17-12.15-12.13-12.2,0,0-13.71-.33-13.71-.33-6.72-.04-12.09,4.88-12.49,11.38l-.75,10.76c-.24,0-.49-.01-.74-.01-19.85-.13-31.81,16.97-31.9,33.56-.1,18.44,14.99,33.53,33.64,33.65,4.07.03,8.18-.7,12.13-2.13,5.29,3.08,10.46,3.77,11.22,3.85l.5.06h.5c2.4.02,8.31-.77,11.4-8.27l4.13-9.78c.73-1.52,1.11-3.2,1.12-5.03.02-2.88-.96-6.74-5.49-9.63Z"/>
    <path class="cls-4" d="M269.8,164.78c-5.74-.04-10.44-4.65-10.94-10.72l-.03-.42-1.73-42.55v-.24c.04-6.13,4.37-11.04,10.08-11.6l.47-.03,3.46-.16c4.46-1.37,8.95-2.05,13.39-2.03,3.41.02,6.68.47,9.76,1.33,4.84-1.51,9.63-2.27,14.29-2.24,19.05.12,33.07,13.85,34.09,33.38.23,4.29.77,4.73,1.2,5.09l.21.18c3.2,2.8,4.81,6.09,4.79,9.77-.02,3.31-1.41,6.44-3.83,8.65-1.43,1.57-3.51,3.6-6.5,6.53l-.17.16c-2.63,2.45-5.59,3.68-8.79,3.66s-7.86-1.42-12.33-4.79c-1.85,2.36-4.58,3.94-7.71,4.22l-.35.02-14.82.73h-.26c-1.54-.01-3-.33-4.32-.91-1.29.71-2.74,1.17-4.29,1.3l-.41.03-14.88.65h-.39Z"/>
    <path class="cls-4" d="M348.42,164.13c-5.78-.04-10.52-4.65-11.02-10.72l-.02-.39-1.75-39.89v-.25c0-1.33.22-2.6.61-3.79-2.23-3.49-3.52-7.68-3.5-12.17.07-12.11,9.61-21.9,21.26-21.83,11.61.07,21.01,9.99,20.94,22.1-.02,3.59-.88,6.98-2.37,9.96.63,1.39.99,2.93,1.04,4.55l1.74,39.82v.25c-.03,6.02-4.49,11.05-10.15,11.6l-.48.03-15.9.73h-.4Z"/>
    <path class="cls-4" d="M419.19,166.45c-3.9-.02-11.25-2.98-16.65-9.46-1.82,3.79-5.6,6.39-9.95,6.37l-.63-.02-15.97-.94c-5.88-.55-10.29-5.6-10.26-11.75v-.26s2.37-42.74,2.37-42.74l.02-.19c.56-5.97,5.45-10.62,11.14-10.58l.67.02,7.59.47c3.26-.6,6.36-.89,9.44-.87,21.73.14,37.42,15.19,37.31,35.79v2.68c-.03,2.7.48,3.38,1.01,3.92,2.85,2.61,4.4,5.98,4.38,9.54-.02,3.76-1.78,7.19-4.84,9.43l-.02-.03c-1.73,1.47-4.16,3.26-7.6,5.79-2.37,1.86-5.13,2.83-8,2.81Z"/>
    <g>
      <path class="cls-4" d="M25.21,100.22c-.84.03-1.78.05-2.9-.01-5.17-.15-9.79-3.97-11.13-9.3l-2.84-11.79c-.43-1.45-.47-2.64-.48-3.13-.18-6.37,4.7-11.7,10.87-11.88,0,0,.52-.02.62-.03-.91-1.47-2.08-3.25-2.99-4.62-4.23-6.24-6.49-12.59-6.66-18.76-.4-14.55,12.06-30.39,35.95-31.1,7.79-.23,12.67,2.73,14.53,8.81l.12.44,3.02,11.75c.42,1.47.46,2.69.47,3.13.19,6.72-4.71,11.21-9.72,11.94.51.79,1.16,1.72,1.95,2.82l.11.16c4.39,6.33,6.7,12.73,6.88,19.04.43,15.43-13.59,31.82-37.79,32.54Z"/>
      <path class="cls-4" d="M108.72,97.73c-3.08.09-10.71-1.99-16.77-7.98-1.58,4.21-5.45,7.26-10.03,7.39l-15.65.47c-6.17.18-11.34-4.88-11.52-11.3l-1.85-66.52c-.18-6.41,4.7-11.78,10.87-11.96l15.65-.47c6.13-.18,11.26,4.89,11.44,11.3l.32,11.67c17.45,2.25,29.61,15.29,30.39,33.58.16,3.86.83,4.37,1.47,4.87l.18.14c4.03,3.3,4.96,7.03,5.03,9.59.1,3.43-1.25,6.65-3.8,9.04l-7.4,6.7c-2.43,2.19-5.3,3.39-8.32,3.48Z"/>
      <path class="cls-4" d="M158.79,95.43c-6.09.18-11.2-4.64-11.57-10.82l-3.38-42.34v-.27c-.18-6.33,4.47-11.65,10.42-12.02l7.78-.65c4.61-1.54,9.25-2.39,13.8-2.52,3.27-.1,6.57.19,9.81.85l.35.08c5.35,1.31,8.9,5.74,9.06,11.28.04,1.29-.14,2.32-.24,2.88l-1.98,11.72c-.9,5.07-4.55,8.84-9.18,9.76l1.46,18.4v.27c.19,6.4-4.45,11.64-10.4,12.02l-15.66,1.37h-.26Z"/>
      <path class="cls-4" d="M214.46,94.59c-18.78.56-33.91-13.86-34.44-32.83-.58-20.83,13.56-35.81,34.39-36.43,22.27-.66,34.78,16.79,35.24,33.54.29,10.26-4.03,19.69-12.14,26.56-6.5,5.5-15.12,8.92-23.05,9.16Z"/>
      <path class="cls-4" d="M115.39,35.08c.07-.17.16-.5-.61-2.95-.5-1.59-.65-1.79-.82-2.47-.22-.86-.41-2.16-.12-3.92.16-.93.58-2.62,1.85-4.19.21-.26,3.11-3.75,6.01-3.07,1.12.27,2.26,1.16,3.32.58.26-.14.43-.33.54-.46.16-.37.38-.83.7-1.31.06-.08.37-.6.83-1.05.54-.53,1.4-1.22,2.59-1.73,1.93-.82,3.68-.68,4.54-.55,1.6.6,2.52,1.45,3.08,2.14,1.69,2.09,1.71,4.86,3.22,5.33.57.18,1.09.05,1.09.05.51-.15.88-.5,1.24-.86.29-.29.39-.45.57-.67,0,0,.64-.74,1.65-1.22,1.47-.69,3.72.79,4.01.98,2.92,1.91,4.89,6.96,5.02,12.69.14,5.99-1.84,7.68-3.43,14.43-1.76,7.46-.37,9.68-.81,21.22-.19,4.87-.72,11.89-2.33,20.43-1.04-.47-2.75-1.14-4.97-1.5-6.79-1.09-10.49,2.07-15.7.44-1.34-.42-3.28-1.31-5.32-3.48.2-2.36.33-5.5.13-9.2-.51-9.28-.98-17.43-5.8-24.41,0,0-4.51-6.21-4.56-10.29,0-.73.22-1.36.22-1.36.35-.99,1.06-1.56,1.31-1.76,1.12-.89,2.11-.83,2.53-1.86Z"/>
    </g>
    <path class="cls-7" d="M133.92,85.18l4.59,13.17,9.27-8.24s-1.15-2.27-.74-4.55-13.12-.38-13.12-.38Z"/>
    <path class="cls-4" d="M257.45,79.2c-.96-.24-8.12-6.56-9.03-8.49-.21-.35-.3-.96-.17-1.48l.32-1.26c.18-.76.62-1.26,1.29-1.45l10.21-2.4c.41-.06.67-.06.91,0,.61.16,1.05.67,1.16,1.34.13.51.4,1.77.27,2.32-.15.64-.64,1.15-1.25,1.29l-6.2,1.47c1.12,1.02,2.71,2.43,4.67,4.14l.15.13c.51.45.71,1.08.56,1.73-.05.23-.14.4-.2.51l-.11.19-.8,1.16c-.64.93-1.39.9-1.79.8Z"/>
    <path class="cls-4" d="M267.41,83.02c-1.08-.28-1.77-.9-2.04-1.85l-3.18-13.22c-.11-.52-.12-.95-.02-1.35.19-.78.76-1.33,1.58-1.49.04,0,4.51-.82,5.5-.57.82.21,1.42.82,1.6,1.64l.89,4.93c.75-1.1,1.52-2.25,2.03-3.01.31-.46.53-.79.61-.9.57-.75,1.36-1.03,2.2-.82.35.09.66.23.96.44l3.14,1.94c1.37.84,1.35,1.92,1.21,2.49-.21.88-5.5,9.98-9.73,12.22-.66.32-1.44.39-2.14.21l-2.61-.67Z"/>
    <path class="cls-4" d="M285.93,88.06c-4.67-1.19-6.87-5.05-5.89-10.31.35-1.84,1.13-5.37,1.46-6.88.53-2.24,1.87-2.27,2.42-2.18h0c.79-.01,2.17.18,4.66.81,1.27.32,1.7,1.37,1.56,2.27-.22,1.5-.46,2.77-.85,4.89l-.32,1.7c-.24,1.28-.14,1.98.29,2.09.16.04.38.05.62.04l2.41-8.32c.32-.99,1.27-1.53,2.21-1.29,0,0,5.15,1.63,5.15,1.63.91.23,1.48,1.25,1.24,2.3l-4.01,13.86c-.32.99-1.27,1.53-2.21,1.29l-4.85-1.54c-1.4.07-2.71-.05-3.89-.35Z"/>
    <path class="cls-4" d="M307.36,93.79c-6.6-1.68-8.92-7.36-7.8-12.09,1.04-4.41,5.21-8.37,11.9-6.66,6.26,1.6,6.73,7.12,6.01,10.13-.46,1.96-1.78,3.1-3.8,3.28-.4.04-.84.05-1.3.04.15.36.19.77.08,1.21-.18.76-1.98,3.2-2,3.23-.94,1.15-2.03,1.14-2.79.95l-.31-.08Z"/>
    <path class="cls-4" d="M316.64,95.96c-.27-.07-.5-.18-1.55-.98-.64-.56-.89-1.29-.72-1.98.07-.29.19-.48.25-.57l13.9-19.44c.43-.59,1.14-.85,1.83-.68.37.09.69.33,1.48.98l.13.11c.56.4.82,1.11.65,1.85-.18.77-13.97,19.85-14.11,20.04-.38.58-1.12.87-1.85.68Z"/>
  </g>
  <path class="cls-14" d="M420.13,62.25c.14-.52.27-1.05.4-1.58.52-2.6-.93-4.98-3.51-5.65l-7.23-1.82-.33-.07c-2.19-.44-4.81.5-5.72,3.65-.11.41-.22.82-.33,1.23-.99.02-1.92.36-2.68.95-1.12-1.96-3.28-2.42-4.33-2.63-5.08-1.02-10.72-.32-14.14,2.47-1.6-3.47-4.79-6.37-10.01-7.42-6.16-1.24-10.95.23-14.26,2.99,1.37-5.41,2.47-9.83,2.57-10.35.5-2.47-.97-4.82-3.41-5.47l-7.32-1.96-.31-.07c-2.47-.5-4.99,1.17-5.46,3.54l-1.04,4.49c-1.66-4.3-2.87-6.92-3.85-8.39-.87-1.3-2.59-2.17-3.83-2.41l-.16-.03-7.7-1.18c-2.79-.42-4.95,1.66-5.52,4.04-2.05-2.24-4.96-3.79-8.73-4.55-2.15-.43-4.22-.5-6.15-.2-2.02.32-3.87,1.02-5.47,2.09-1.6,1.06-2.96,2.48-4.04,4.21-1.03,1.65-1.77,3.59-2.21,5.78l-2.45,12.16c-.44,2.16-.49,4.25-.17,6.18.34,2.04,1.08,3.9,2.2,5.52,1.11,1.6,2.57,2.95,4.34,4.03,1.69,1.02,3.67,1.77,5.89,2.22l6.38,1.29,1.87-9.27,4.15.84-.02.12c-.31,2.53,1.41,4.98,3.84,5.47l.35.07,7.61.54c3.05.24,5.16-1.9,5.6-4.08l.04-.22.07-.82c.83,2.61,1.25,3.92,1.47,4.49.91,2.21,2.48,2.93,3.43,3.16l7.15,1.88.21.05c2.49.5,4.93-1.03,5.52-3.44.19-.68.42-1.51.67-2.43,1.78,4.8,6.03,8.94,13.05,10.35l.46.09c2.34.47,4.42-.29,5.97-2.28,1.03-1.46,2.8-4.11,3.07-5.43.02-.12.04-.24.06-.36.02,0,.05,0,.07,0,.36-.05.69-.12,1.02-.2-.06.19-.16.37-.2.56-.14.67-.07,1.23,0,1.68l.78,4.73c.19,1.31.99,3.6,4.28,4.26l.42.09c6.17,1.24,15.3,0,17.57-6.32.45,4.94,2.74,8.75,8.45,11.18.51.24.96.33,1.17.38,1.2.24,3.48.24,5.32-2.46l2.99-4.46.14-.22c.15-.26.43-.74.56-1.42.24-1.19.11-2.89-1.88-4.48,0-.05-.01-.11-.02-.18,1.75-.21,3.28-1.44,3.85-3.31l1.75-6.32.06-.26c.41-2.06-.59-4.07-2.33-4.99ZM409.11,107.59s.04.02.06.03c0,.05,0,.1-.01.15-.02-.06-.03-.12-.05-.18Z"/>
  <g>
    <path class="cls-8" d="M296.61,57.99l2.45-12.16c.35-1.75.92-3.26,1.72-4.54.79-1.27,1.77-2.3,2.93-3.07,1.16-.77,2.49-1.27,3.98-1.51,1.49-.23,3.1-.18,4.83.17,3.22.65,5.58,1.9,7.08,3.76s1.98,4.12,1.44,6.8l-3.38,16.8-4.29-.86.71-3.71c-.57,1.25-1.32,2.15-2.23,2.7-.91.55-1.96.71-3.15.47-1.75-.35-2.92-1.14-3.5-2.37-.58-1.23-.64-3.03-.16-5.4l.62-3.09c.48-2.37,1.22-4.01,2.24-4.91,1.01-.91,2.39-1.19,4.15-.83,1.08.22,1.93.7,2.56,1.46s1,1.75,1.13,2.98c.04-.34.1-.82.19-1.43.08-.61.2-1.27.34-1.96l.16-.77c.28-1.39,0-2.58-.81-3.56s-2.12-1.65-3.89-2.01c-2.09-.42-3.82-.13-5.22.86-1.39.99-2.32,2.65-2.79,4.96l-2.45,12.16c-.46,2.27-.21,4.11.73,5.53.94,1.42,2.55,2.36,4.82,2.82l2.7.54-.86,4.25-2.7-.54c-1.8-.36-3.37-.95-4.69-1.75-1.32-.8-2.39-1.79-3.2-2.96s-1.34-2.5-1.59-4c-.25-1.5-.2-3.11.15-4.83ZM310.29,52.91l-.62,3.09c-.23,1.13-.23,2.03,0,2.69s.72,1.07,1.46,1.22c1.65.33,2.7-.66,3.17-2.98l.62-3.09c.47-2.32-.12-3.64-1.77-3.97-.69-.14-1.28.02-1.77.49s-.85,1.32-1.1,2.55Z"/>
    <path class="cls-1" d="M341.79,75.67c-.42-.09-.69-.54-.86-.94-.55-1.44-5.38-17.35-6.62-19.77-.11-.26-.25-.37-.36-.39-.19-.04-.3.1-.36.41l-.03.15-1.34,16.84v.04c-.09.42-.63,1.12-1.62,1.04l-7.41-.53-.12-.02c-.58-.12-.92-.83-.86-1.34l4.31-29.94.02-.08c.09-.42.54-1.3,1.32-1.18l7.6,1.17.08.02c.58.12,1.29.58,1.44.81,1.85,2.78,5.01,11.62,7.4,18.48.07.25.17.36.29.38.15.03.28-.18.34-.49l3.64-15.7c.09-.46.6-.8,1.07-.71l.08.02,7.32,1.96c.61.16.79.64.7,1.11-.2,1-5.68,22.8-7.67,29.87-.1.5-.6.8-1.14.69l-7.21-1.89Z"/>
    <path class="cls-17" d="M367.33,79.51c-8.76-1.77-11.96-8.64-10.78-14.5,1.11-5.52,6.18-10.53,14.98-8.75,9.57,1.93,8.28,10.55,8.02,11.82-.36,1.78-1.39,3.1-3.82,3.41-1.94.25-4.88.1-6.9-.23-.62-.12-.76-.43-.82-.93-.21-1.37-.43-4.02-.4-4.18.09-.42.43-.56.96-.57,2.1-.06,2.39-.08,2.5-.62.07-.35-.41-1.73-2.04-2.06-1.85-.37-3.72.94-4.21,3.33-.55,2.74.83,6.23,5.66,7.21.27.05.58.12.86.13l.08.02c.54.11,1.13.59.99,1.24-.08.39-1.61,2.81-2.45,4-.43.56-1.04.99-2.16.77l-.46-.09Z"/>
    <path class="cls-1" d="M382.83,82.55c-.85-.17-1.2-.4-1.3-1.11l-.8-4.82c-.02-.12-.03-.25-.01-.32.12-.58.9-.5,1.37-.41,2.29.42,3.58-.44,3.77-1.37.1-.5-.28-1.22-.68-2.02l-.81-1.37c-1.31-2.27-1.67-4.07-1.37-5.54.88-4.36,7.64-5.41,12.7-4.39,1.51.3,1.86.54,1.99,1.28l.83,4.83c.05.17.02.29,0,.4-.09.42-.54.49-1.04.39l-.15-.03c-2.32-.47-3.36.13-3.52.9-.13.66.3,1.51,1.44,3.42,1.39,2.29,1.81,4.18,1.51,5.65-.92,4.56-8.33,5.63-13.5,4.59l-.42-.09Z"/>
    <path class="cls-17" d="M411.9,87.01c-.46.67-.88.99-1.46.87-.12-.02-.23-.05-.34-.11-5.97-2.49-7.44-6.32-5.67-16.13l-2.86-.74c-.42-.12-.69-.58-.6-1l1.75-6.32c.12-.42.54-.69,1-.6l2.44.65c.37-1.45.77-3.02,1.22-4.66.13-.46.36-1.17,1.36-.97l.15.03,7.23,1.82c.65.17.88.62.75,1.28-.4,1.61-.86,3.28-1.3,4.88l2.63.69c.42.09.69.54.6,1l-1.75,6.32c-.12.38-.5.66-.92.58l-.08-.02-2.52-.63c-.71,3.51-.78,6.27.77,7.35.39.28.82.53.73.95-.02.08-.08.19-.14.29l-2.99,4.46Z"/>
  </g>
  <g>
    <g>
      <path class="cls-15" d="M100.73,147.55c-8.03,5.96-29.73,12.48-39.87,14.84-8.97.36-15.3-9.29-22.23-14.68-8.87-8.25-18.83-14.2-14.66-27.86,3.01-11.02,2.85-26.56,9.65-35.39,5.76-4.88,15.53-6.81,22.96-9.81,5.8-1.96,14.1-5.4,18.45-4.79,6.3.62,13.25,8.83,18.64,13.34,7.18,7.39,18.02,13.02,16.89,23.35-1.96,10.55-4.09,30.55-9.2,40.26l-.63.74Z"/>
      <path class="cls-15" d="M23.96,119.86c-4.17,13.66,5.78,19.61,14.66,27.86,6.9,5.37,13.2,14.92,22.1,14.67l-27.63-77.08c-6.22,8.94-6.2,23.85-9.13,34.54Z"/>
      <path class="cls-15" d="M110.49,112.37c4.17-13.66-5.78-19.61-14.66-27.86-6.9-5.37-13.2-14.92-22.1-14.67l27.63,77.08c6.22-8.94,6.2-23.85,9.13-34.54Z"/>
    </g>
    <g>
      <path class="cls-14" d="M95.26,144.58c-7.15,5.31-26.48,11.12-35.52,13.22-7.99.32-13.63-8.27-19.8-13.08-7.9-7.35-16.77-12.65-13.06-24.82,2.68-9.82,2.54-23.66,8.6-31.52,5.13-4.34,13.84-6.07,20.45-8.74,5.16-1.75,12.56-4.81,16.43-4.27,5.62.55,11.8,7.86,16.61,11.88,6.4,6.58,16.05,11.6,15.05,20.8-1.74,9.39-3.64,27.21-8.19,35.86l-.56.66Z"/>
      <path class="cls-14" d="M26.88,119.92c-3.72,12.17,5.15,17.47,13.06,24.82,6.15,4.78,11.76,13.29,19.68,13.07l-24.61-68.65c-5.54,7.96-5.53,21.24-8.13,30.77Z"/>
      <path class="cls-14" d="M103.96,113.25c3.72-12.17-5.15-17.47-13.06-24.82-6.15-4.78-11.76-13.29-19.68-13.07l24.61,68.65c5.54-7.96,5.53-21.24,8.13-30.77Z"/>
    </g>
    <rect class="cls-14" x="104.31" y="79.94" width="44.07" height="44.07" rx="1.39" ry="1.39" transform="translate(-26.44 47.02) rotate(-19.12)"/>
    <path class="cls-14" d="M150.25,156.98c-1.3,0-2.58-.22-3.91-.65l-11.67-3.43c-5.16-1.67-8.47-6.13-8.44-11.37s14.22-49.79,28.64-63.08l.19-.18.2-.16c2.27-1.87,5.59-3.02,8.67-3l10.99.07c5.01.03,9.58,2.73,11.48,6.74l25.96,53.62c.55,1.11,1.23,2.98,1.22,5.22-.03,4.68-2.78,8.78-7.01,10.44l-14.65,5.15c-1.4.52-2.93.79-4.44.78-4.74-.03-9.09-2.79-10.81-6.88l-1.31-2.98c-1.8,1.24-3.96,1.96-6.26,1.94h-.6s-7.35-.42-7.35-.42c-.09.24-.28.79-.28.79l-.13.32c-1.86,4.39-5.87,7.1-10.48,7.08Z"/>
    <path class="cls-14" d="M265.76,127.79c-.15-.79-.31-2.23-.29-4.7.03-4.45,2.41-33.62,2.72-36.6l.08-.51v-.94c.04-5.61-4.04-11.32-11.74-11.36,0,0-13.28-.31-13.28-.31-6.5-.04-11.71,4.55-12.1,10.61l-.73,10.02c-.24,0-.47-.01-.71-.01-19.22-.11-30.8,15.82-30.89,31.28-.1,17.18,14.51,31.25,32.57,31.36,3.95.02,7.92-.66,11.74-1.99,5.12,2.87,10.13,3.51,10.86,3.59l.48.05h.48c2.32.02,8.04-.72,11.04-7.71l4-9.11c.71-1.42,1.07-2.99,1.08-4.69.02-2.69-.93-6.28-5.31-8.98Z"/>
    <path class="cls-14" d="M270.03,158.52c-5.56-.03-10.11-4.33-10.59-9.99l-.02-.39-1.67-39.66v-.22c.04-5.71,4.23-10.29,9.76-10.81l.46-.03,3.35-.15c4.31-1.28,8.67-1.92,12.97-1.89,3.3.02,6.47.43,9.45,1.24,4.68-1.41,9.32-2.11,13.84-2.09,18.44.11,32.02,12.9,33.01,31.1.22,4,.74,4.41,1.16,4.74l.2.16c3.1,2.61,4.66,5.68,4.64,9.11-.02,3.08-1.36,6-3.71,8.06-1.39,1.46-3.4,3.35-6.3,6.09l-.16.15c-2.54,2.28-5.41,3.43-8.51,3.41s-7.61-1.33-11.94-4.46c-1.79,2.2-4.43,3.67-7.47,3.93l-.34.02-14.35.69h-.25c-1.49-.01-2.9-.31-4.18-.85-1.25.66-2.65,1.09-4.15,1.21l-.39.02-14.41.61h-.37Z"/>
    <path class="cls-14" d="M346.16,157.91c-5.6-.03-10.19-4.33-10.67-9.99l-.02-.36-1.69-37.17v-.24c0-1.24.22-2.43.6-3.53-2.16-3.25-3.41-7.16-3.39-11.35.07-11.29,9.3-20.42,20.59-20.35,11.25.07,20.34,9.3,20.27,20.59-.02,3.35-.85,6.5-2.3,9.29.61,1.29.96,2.73,1,4.24l1.68,37.12v.24c-.03,5.61-4.35,10.3-9.83,10.81l-.46.03-15.4.68h-.38Z"/>
    <path class="cls-14" d="M414.69,160.06c-3.78-.02-10.89-2.78-16.13-8.82-1.76,3.54-5.43,5.96-9.64,5.94l-.61-.02-15.47-.87c-5.7-.51-9.97-5.22-9.93-10.95v-.24s2.31-39.83,2.31-39.83l.02-.18c.54-5.56,5.28-9.9,10.79-9.87l.65.02,7.35.44c3.16-.56,6.16-.83,9.14-.81,21.04.12,36.23,14.15,36.12,33.35v2.5c-.03,2.51.46,3.15.98,3.65,2.76,2.43,4.26,5.58,4.24,8.89-.02,3.5-1.73,6.71-4.69,8.79l-.02-.02c-1.67,1.37-4.03,3.04-7.36,5.4-2.3,1.73-4.97,2.64-7.75,2.62Z"/>
    <g>
      <path class="cls-14" d="M29.11,96.37c-.81.02-1.73.05-2.81-.01-5-.14-9.48-3.69-10.78-8.66l-2.75-10.99c-.42-1.35-.45-2.46-.47-2.91-.17-5.93,4.55-10.9,10.53-11.07,0,0,.5-.02.6-.03-.89-1.37-2.02-3.03-2.89-4.31-4.09-5.81-6.28-11.73-6.45-17.49-.39-13.56,11.68-28.33,34.82-28.99,7.54-.22,12.27,2.54,14.06,8.21l.12.41,2.92,10.95c.41,1.37.44,2.51.45,2.92.18,6.26-4.56,10.45-9.41,11.13.5.73,1.12,1.6,1.89,2.63l.11.15c4.25,5.9,6.49,11.86,6.66,17.74.41,14.38-13.16,29.66-36.6,30.33Z"/>
      <path class="cls-14" d="M109.97,94.04c-2.99.09-10.37-1.85-16.24-7.43-1.53,3.93-5.27,6.76-9.72,6.89l-15.16.44c-5.98.17-10.98-4.55-11.15-10.53l-1.78-62c-.17-5.98,4.55-10.98,10.53-11.15l15.16-.44c5.93-.17,10.9,4.55,11.07,10.53l.31,10.87c16.9,2.09,28.67,14.25,29.42,31.29.16,3.59.8,4.08,1.42,4.54l.17.13c3.9,3.07,4.8,6.55,4.87,8.93.09,3.2-1.21,6.19-3.68,8.43l-7.17,6.24c-2.35,2.04-5.13,3.16-8.05,3.24Z"/>
      <path class="cls-14" d="M158.45,91.89c-5.9.17-10.85-4.32-11.21-10.09l-3.26-39.46v-.25c-.18-5.9,4.33-10.86,10.09-11.21l7.53-.61c4.47-1.43,8.96-2.22,13.36-2.35,3.16-.09,6.36.18,9.49.79l.34.07c5.18,1.22,8.62,5.34,8.77,10.51.03,1.2-.14,2.17-.23,2.69l-1.92,10.92c-.87,4.73-4.41,8.24-8.89,9.09l1.42,17.15v.25c.18,5.96-4.31,10.85-10.07,11.21l-15.17,1.28h-.26Z"/>
      <path class="cls-14" d="M212.36,91.1c-18.19.52-32.84-12.92-33.34-30.6-.56-19.41,13.14-33.37,33.31-33.95,21.56-.62,33.67,15.64,34.12,31.26.28,9.56-3.9,18.35-11.76,24.75-6.29,5.12-14.64,8.32-22.32,8.54Z"/>
      <path class="cls-14" d="M116.44,35.65c.07-.16.16-.47-.59-2.75-.48-1.48-.63-1.67-.8-2.31-.22-.8-.4-2.01-.12-3.65.15-.87.56-2.44,1.79-3.9.21-.25,3.01-3.5,5.82-2.86,1.09.25,2.19,1.08,3.21.54.25-.13.42-.3.52-.42.15-.35.37-.77.68-1.22.05-.08.36-.56.81-.98.52-.49,1.35-1.14,2.51-1.61,1.87-.76,3.56-.64,4.4-.52,1.55.56,2.44,1.35,2.98,1.99,1.63,1.95,1.66,4.53,3.12,4.97.55.16,1.05.05,1.05.05.5-.14.85-.46,1.2-.8.28-.27.38-.42.56-.62,0,0,.62-.69,1.6-1.14,1.42-.64,3.6.73,3.88.91,2.83,1.78,4.74,6.49,4.86,11.83.13,5.58-1.78,7.15-3.32,13.45-1.7,6.95-.35,9.02-.79,19.78-.18,4.54-.7,11.08-2.26,19.04-1-.44-2.67-1.06-4.81-1.39-6.57-1.01-10.15,1.93-15.2.41-1.29-.39-3.18-1.22-5.15-3.24.19-2.2.32-5.13.13-8.57-.49-8.65-.94-16.24-5.61-22.75,0,0-4.37-5.78-4.41-9.59,0-.68.21-1.27.21-1.27.34-.92,1.02-1.46,1.27-1.64,1.08-.83,2.04-.77,2.45-1.74Z"/>
    </g>
    <path class="cls-14" d="M138.47,84.36l4.44,12.27,8.98-7.68s-1.12-2.12-.71-4.24c.4-2.12-12.71-.35-12.71-.35Z"/>
    <path class="cls-14" d="M258.09,78.76c-.93-.23-7.86-6.11-8.74-7.91-.2-.33-.29-.89-.17-1.38l.31-1.17c.17-.71.6-1.18,1.25-1.35l9.89-2.24c.4-.06.65-.05.88,0,.59.15,1.02.62,1.12,1.24.12.48.39,1.65.26,2.16-.15.6-.62,1.07-1.21,1.21l-6,1.37c1.09.95,2.63,2.26,4.52,3.86l.14.12c.49.42.69,1.01.54,1.61-.05.21-.14.37-.2.48l-.11.18-.77,1.08c-.62.87-1.35.84-1.73.75Z"/>
    <path class="cls-14" d="M267.73,82.32c-1.05-.26-1.71-.84-1.97-1.73l-3.08-12.32c-.11-.48-.11-.88-.02-1.26.18-.73.74-1.24,1.53-1.38.04,0,4.36-.77,5.33-.53.8.2,1.38.77,1.55,1.53l.86,4.59c.73-1.02,1.48-2.1,1.97-2.81.3-.43.51-.74.59-.84.56-.7,1.32-.96,2.13-.76.34.08.64.22.93.41l3.04,1.81c1.32.79,1.3,1.79,1.17,2.32-.2.82-5.33,9.3-9.42,11.39-.64.3-1.39.36-2.07.2l-2.53-.62Z"/>
    <path class="cls-14" d="M285.66,87.02c-4.52-1.11-6.65-4.7-5.7-9.61.34-1.72,1.09-5.01,1.41-6.41.51-2.09,1.81-2.12,2.35-2.03h0c.77,0,2.1.17,4.51.76,1.23.3,1.64,1.28,1.51,2.11-.21,1.4-.44,2.59-.83,4.55l-.31,1.58c-.23,1.19-.14,1.84.28,1.95.16.04.36.05.6.04l2.34-7.75c.31-.93,1.23-1.43,2.14-1.2,0,0,4.98,1.52,4.98,1.52.88.22,1.44,1.16,1.2,2.14l-3.89,12.91c-.31.93-1.23,1.43-2.14,1.2l-4.7-1.43c-1.36.07-2.62-.04-3.76-.32Z"/>
    <path class="cls-14" d="M306.42,92.35c-6.39-1.57-8.63-6.86-7.55-11.27,1.01-4.11,5.04-7.8,11.52-6.21,6.06,1.49,6.51,6.63,5.82,9.44-.45,1.83-1.72,2.89-3.68,3.05-.39.03-.82.04-1.26.04.14.34.18.72.08,1.13-.17.71-1.92,2.99-1.93,3.01-.91,1.07-1.97,1.07-2.7.89l-.3-.07Z"/>
    <path class="cls-14" d="M315.4,94.37c-.26-.06-.49-.17-1.5-.92-.62-.52-.86-1.21-.7-1.85.07-.27.18-.45.24-.53l13.46-18.12c.41-.55,1.11-.79,1.77-.63.36.09.67.3,1.44.91l.13.1c.54.37.79,1.04.63,1.72-.18.72-13.53,18.5-13.66,18.68-.37.54-1.08.81-1.79.64Z"/>
  </g>
  <path class="cls-10" d="M21.35,75.37c-.08-.15-.09-.38-.09-.54-.03-1.15,1.11-1.57,1.57-1.58h.31c5.23-.16,10.83-3.09,10.69-7.93-.07-2.53-1.52-4.8-5.86-11.14-3.29-4.67-4.79-8.94-4.9-12.7-.35-12.14,13.29-19.38,26.19-19.75,3-.09,4.54.18,5.05,1.78l3.02,11.3c.08.23.09.46.09.61.04,1.23-1.1,1.72-1.57,1.74h-.46c-4.99.16-9.63,2.14-9.5,6.52.08,2.61,2.1,6.17,5.78,11.06,3.36,4.67,4.87,8.93,4.98,12.78.37,12.76-14.71,20.73-28,21.11-.77.02-1.46.04-2.23-.01-1,.03-1.95-.79-2.21-1.78l-2.87-11.45ZM112.92,85.27c-.83.72-1.59.97-2.28.99-.31,0-14.6-2.2-15.05-17.79-.27-9.3-4.67-12.48-10.2-12.32h-.38s.8,27.9.8,27.9c.03.92-.64,1.63-1.49,1.66l-15.37.44c-.92.03-1.63-.65-1.66-1.57l-1.81-62.86c-.02-.84.65-1.63,1.57-1.66l15.37-.44c.85-.02,1.56.72,1.58,1.57l.57,19.98c.92-.1,1.84-.13,2.69-.15,14.45-.42,26.22,7.86,26.89,23.07.22,4.99,1.33,8.8,5.18,11.69.47.37,1.34,1.11,1.36,1.96.01.38-.13.85-.65,1.33l-7.13,6.2ZM159.8,84.08c-.92.03-1.71-.57-1.74-1.49l-3.3-39.89c-.03-.92.64-1.71,1.49-1.74l8.9-.72c4.11-1.43,8.09-2.16,11.93-2.27,2.61-.08,5.16.16,7.55.63,1.16.27,1.64.88,1.67,1.8,0,.31-.06.62-.13,1l-1.92,10.9c-.2,1.08-.95,1.64-1.87,1.67-.23,0-.54-.06-.85-.13-1.24-.35-2.55-.54-3.86-.5-1.08.03-2.15.22-3.37.56l2.24,27.16v.15c.03.84-.64,1.56-1.49,1.58l-15.27,1.28ZM214.45,83.27c-12.53.36-23.77-8.39-24.16-21.92-.46-15.83,11.14-24.39,24.67-24.78,16.98-.49,24.66,12.59,24.95,22.58.43,14.98-14.54,23.8-25.45,24.11ZM223.53,59.48c-.04-1.46-.56-8.9-8.4-8.68-6.45.19-8.14,5.69-8.04,9.15.15,5.3,4.4,8.72,8.78,8.59,5.46-.16,7.79-4.68,7.66-9.06Z"/>
  <g>
    <path class="cls-13" d="M118.82,38.24c-.19.15-.72.58-.97,1.34,0,0-.16.49-.13,1.06.16,3.21,3.87,8.22,3.87,8.22,3.97,5.63,4.58,12.04,5.26,19.34.27,2.91.26,5.37.17,7.22,1.65,1.77,3.2,2.53,4.26,2.9,4.12,1.44,6.92-.92,12.25.14,1.74.35,3.1.93,3.92,1.33,1-6.65,1.21-12.15,1.21-15.96,0-9.05-1.15-10.84,0-16.64,1.04-5.26,2.53-6.52,2.25-11.22-.27-4.5-1.96-8.53-4.3-10.12-.23-.16-2.04-1.39-3.16-.89-.78.34-1.25.9-1.25.91-.14.16-.21.29-.43.5-.27.27-.55.53-.95.64,0,0-.4.08-.85-.08-1.19-.42-1.3-2.59-2.68-4.28-.45-.56-1.2-1.25-2.47-1.78-.68-.13-2.05-.29-3.53.29-.92.36-1.57.88-1.97,1.28-.35.34-.58.73-.62.8-.24.37-.4.72-.51,1.01-.08.1-.21.24-.4.34-.81.42-1.72-.32-2.61-.56-2.29-.63-4.44,2.02-4.6,2.22-.94,1.19-1.22,2.5-1.32,3.23-.18,1.37.01,2.4.21,3.08.16.54.28.71.72,1.97.68,1.95.61,2.21.56,2.34-.29.8-1.07.72-1.92,1.38Z"/>
    <path class="cls-14" d="M135.47,45.4c-.14.11-.3.25-.4.33-.51.4-1.3.74-2.04.78-1.39.07-2.52-.91-2.75-1.11-2.15-1.85-2.01-5.22-1.98-6.12.05-1.14.15-3.69,2.11-5.37,1.83-1.57,4.5-1.72,6.76-.67,2.71,1.27,4.16,3.96,4.54,6.06.13.72.39,2.18-.37,3.44-.11.18-.83,1.33-2.18,1.59-1.2.23-1.91-.43-2.62.12-.18.14-.37.36-1.07.95Z"/>
    <ellipse class="cls-16" cx="122.73" cy="41.4" rx="2.37" ry="2.66" transform="translate(-4.08 67.79) rotate(-30.4)"/>
    <ellipse class="cls-16" cx="124.32" cy="30.03" rx="2.37" ry="2.66" transform="translate(1.89 67.03) rotate(-30.4)"/>
    <ellipse class="cls-16" cx="133.27" cy="26.07" rx="2.37" ry="2.66" transform="translate(5.13 71.02) rotate(-30.4)"/>
    <ellipse class="cls-16" cx="144.7" cy="32.06" rx="2.37" ry="2.66" transform="translate(3.67 77.63) rotate(-30.4)"/>
  </g>
  <path class="cls-9" d="M261,135.7c-3.14-1.46-4.04-6.14-4-12.4.03-5.25,2.68-37.2,2.84-38.22,0-.08,0-.15,0-.23,0-1.07-.6-2.05-2.76-2-4.43.04-8.86.08-13.3.11-1.54.04-2.77.83-2.86,2.11-.5,6.74-1,13.47-1.51,20.19-2.76-.97-6.06-1.62-9.37-1.6-15.22.15-21.83,12.61-21.89,21.46-.07,11.67,10.86,21.43,23.7,21.96,4.23.16,8.69-.72,13.01-2.92,4.28,4.38,10.89,5.32,10.89,5.32,1.15.04,1.93-.69,2.55-2.13,1.4-3.14,2.81-6.3,4.21-9.46.15-.23.16-.46.16-.69,0-.69-.84-1.1-1.68-1.5ZM233.72,133.54c-4.92-.12-7.9-3.76-7.87-7.9.03-4.15,2.97-8.2,7.58-8.17,2.31.02,4.45,1.08,5.29,2.6-.03,4.81.25,8.79.77,12.19-2.16.93-4.08,1.33-5.77,1.29ZM203.23,141.55c-4.88,1.47-9.76,2.91-14.64,4.32-.38.13-.85.18-1.23.16-1.23-.05-2.15-.73-2.38-1.24-5.61-12.02-11.22-23.82-16.84-35.4-.23-.49-.46-.7-.69-.7-.62-.02-1.47,1.99-6.39,12.91,2.92.19,5.84.37,8.76.56,1,.02,1.76.8,1.76,1.71,0,.05,0,.09,0,.14-.33,4.17-.67,8.33-1,12.49-.08.84-.86,1.58-1.86,1.54-.05,0-.1,0-.15,0-4.74-.38-9.48-.75-14.22-1.13-1.48,3.24-2.58,5.72-2.81,6.32-.39.8-1.01,1.25-1.93,1.21-.38-.02-.77-.1-1.23-.26-3.91-1.17-7.83-2.34-11.74-3.49-1.46-.46-2.07-1.29-2.06-2.29.01-1.92,13.42-39.39,26.01-50.43.46-.36,1.62-.87,2.77-.9,3.72-.09,7.43-.18,11.15-.27,1.61-.04,2.92.63,3.22,1.26,8.78,16.38,17.57,33.25,26.35,50.6.15.3.3.74.3,1.1,0,.73-.39,1.51-1.16,1.77ZM339.23,141.5c0,.41-.16.9-.62,1.3,0,.17-6.57,6.63-6.57,6.62-.85.79-1.54,1.1-2.31,1.07-1.08-.03-13.13-2.92-13.96-18.76-.34-8.7-1.93-11.92-6.31-12.59.41,9.53.81,19.07,1.22,28.61,0,.96-.62,1.66-1.47,1.72-4.77.12-9.54.24-14.3.35-.05,0-.1,0-.15,0-.77-.03-1.38-.76-1.45-1.63-.22-5.56-.45-11.12-.67-16.68-.34-7.98-1.93-11.31-6.77-11.73.41,9.5.81,19.01,1.22,28.53,0,.94-.62,1.63-1.47,1.68-4.79.07-9.59.14-14.38.2-.05,0-.1,0-.15,0-.77-.03-1.38-.75-1.45-1.6-.56-13.43-1.12-26.83-1.68-40.22,0-.05,0-.1,0-.15,0-.85.62-1.47,1.39-1.55,1.54-.08,3.08-.17,4.61-.25,3.93-1.34,7.78-1.99,11.47-2.01,3.46-.02,6.68.51,9.68,1.68,4.93-1.92,9.62-2.84,13.93-2.87,13.53-.14,23.4,8.82,24.16,23.72.28,5.31,1.1,9.31,4.7,12.41.46.42,1.38,1.26,1.37,2.16ZM363.55,108.54c.57,13.57,1.13,27.15,1.7,40.75,0,.06,0,.11,0,.17,0,.84-.7,1.57-1.47,1.63-5.13.15-10.25.29-15.38.42-.05,0-.1,0-.15,0-.85-.02-1.46-.78-1.53-1.69-.57-13.39-1.13-26.77-1.7-40.13,0-.99.62-1.73,1.55-1.82,5.13-.3,10.25-.6,15.38-.91.05,0,.1,0,.15,0,.77,0,1.46.74,1.45,1.58ZM426.56,148.78c0,.52-.24,1.04-.78,1.46,0,.18-7.64,6.18-7.64,6.17-.77.67-1.54.91-2.23.9-1.38-.04-13.66-4.89-13.58-20.1,0-.97.01-1.94.02-2.91.05-8.99-3.85-12.77-9.46-13.12-.54,10.29-1.08,20.58-1.62,30.85,0,.85-.7,1.6-1.47,1.58-.05,0-.1,0-.15,0-5.12-.41-10.25-.82-15.37-1.22-.92-.11-1.53-.88-1.53-1.89.77-14.53,1.54-29.09,2.31-43.67.08-.93.78-1.69,1.55-1.69.05,0,.1,0,.15,0,2.87.15,5.74.3,8.61.45,3-.7,5.85-1.06,8.61-1.08,15.6-.17,27.39,10.47,27.3,27.05,0,.95-.01,1.91-.01,2.86-.03,4.85.95,8.75,4.09,12.1.46.44,1.22,1.32,1.22,2.28ZM364.86,93.26c-.04,6.77-5.14,12.32-11.37,12.35-6.3.03-11.35-5.36-11.31-12,.04-6.72,5.14-12.27,11.44-12.43,6.23-.16,11.27,5.23,11.23,12.09Z"/>
  <path class="cls-3" d="M259.21,77.48c-.16.23-.29.31-.44.27-.38-.09-7.22-5.67-8.04-7.36-.08-.13-.13-.35-.08-.56l.31-1.16c.06-.23.13-.43.39-.5l9.97-2.26c.14-.02.25-.02.32,0,.13.03.18.13.2.27.03.09.34,1.48.29,1.69-.04.18-.18.28-.29.31l-8.41,1.92c.99,1.02,6.34,5.51,6.52,5.67.13.11.18.23.15.39-.02.08-.06.15-.11.24l-.78,1.1Z"/>
  <path class="cls-2" d="M268.32,81.17c-.51-.12-.94-.34-1.1-.89l-3.11-12.44c-.06-.28-.07-.5-.02-.68.07-.28.26-.42.57-.48.68-.13,4.34-.68,4.87-.55.38.09.59.33.66.62l1.3,6.97c.02.14.08.21.13.22.08.02.14-.02.25-.15,1.39-1.84,3.71-5.23,3.99-5.61.23-.29.52-.38.85-.3.18.04.35.11.53.24l3.15,1.88c.54.32.71.63.62.99-.1.41-5.12,8.81-8.91,10.73-.3.14-.78.21-1.24.1l-2.56-.63Z"/>
  <path class="cls-2" d="M290.16,86.3c-1.31.08-2.55,0-3.67-.28-3.53-.87-5.78-3.52-4.85-8.3.33-1.67,1.05-4.83,1.42-6.46.26-1.04.66-1.16.97-1.11.04-.04,4.04.64,4.47.75.51.12.65.43.6.74-.27,1.74-.55,3.12-1.14,6.18-.43,2.21.14,3.16,1.21,3.42.51.12,1.16.1,1.87-.05l2.6-8.62c.1-.3.4-.44.68-.37l4.98,1.52c.3.07.45.38.37.68l-3.93,13.03c-.1.3-.4.44-.68.37l-4.91-1.5Z"/>
  <path class="cls-2" d="M307.06,91.36c-5.76-1.41-7.69-6.06-6.74-9.92.89-3.63,4.39-6.81,10.18-5.39,6.29,1.55,5.2,7.22,4.99,8.06-.29,1.17-1.01,2.01-2.63,2.15-1.29.11-3.24-.07-4.57-.34-.41-.1-.49-.31-.52-.64-.1-.91-.18-2.68-.15-2.78.07-.28.3-.36.65-.35,1.39.02,1.58.01,1.67-.34.06-.23-.23-1.16-1.29-1.42-1.22-.3-2.5.52-2.88,2.09-.44,1.8.38,4.16,3.55,4.94.18.04.38.09.56.11h.05c.36.1.73.43.62.87-.06.25-1.15,1.82-1.74,2.59-.3.36-.72.63-1.46.45l-.3-.07Z"/>
  <path class="cls-2" d="M328.32,73.75c.12-.16.32-.22.5-.17.2.05,1.03.74,1.14.82.18.13.2.29.16.44-.07.28-13.36,18.12-13.63,18.48-.13.18-.33.24-.53.19-.13-.03-.7-.44-1.09-.72-.18-.15-.29-.37-.24-.57.02-.08.06-.12.1-.19l13.58-18.28Z"/>
  <g>
    <path class="cls-5" d="M84.48,137.47c-4.87,3.62-18.03,7.57-24.17,9-5.44.22-9.27-5.63-13.48-8.9-5.38-5-11.42-8.61-8.89-16.89,1.83-6.68,1.73-16.1,5.85-21.45,3.49-2.96,9.42-4.13,13.92-5.95,3.51-1.19,8.55-3.27,11.19-2.9,3.82.38,8.03,5.35,11.3,8.09,4.35,4.48,10.92,7.9,10.24,14.16-1.19,6.39-2.48,18.52-5.58,24.41l-.38.45Z"/>
    <path class="cls-12" d="M37.93,120.68c-2.53,8.28,3.51,11.89,8.89,16.89,4.18,3.25,8,9.04,13.4,8.89l-16.75-46.73c-3.77,5.42-3.76,14.46-5.53,20.94Z"/>
    <path class="cls-11" d="M90.39,116.14c2.53-8.28-3.51-11.89-8.89-16.89-4.18-3.25-8-9.04-13.4-8.89l16.75,46.73c3.77-5.42,3.76-14.46,5.53-20.94Z"/>
  </g>
  <path class="cls-18" d="M143.3,114.53l-31.56,10.94-10.94-31.56,31.56-10.94,10.94,31.56Z"/>
  <g>
    <path class="cls-14" d="M115.49,110.89l-.96-2.76,10.46-3.63.96,2.76-3.75,1.3,3.97,11.45-2.96,1.03-3.97-11.45-3.75,1.3Z"/>
    <path class="cls-14" d="M130.16,114.31l2.96-1.03c.45.95,1.33,1.2,2.65.74.66-.23,1.11-.54,1.35-.94.24-.4.28-.84.12-1.31-.15-.42-.41-.74-.78-.94-.37-.21-.82-.28-1.33-.23l-1.62.18c-1.39.16-2.55-.02-3.47-.53-.92-.51-1.58-1.35-1.99-2.51-.21-.6-.29-1.2-.23-1.78.06-.58.23-1.12.53-1.62.3-.5.71-.95,1.24-1.36.53-.41,1.17-.74,1.92-1,1.41-.49,2.66-.53,3.75-.13,1.09.4,1.9,1.21,2.42,2.41l-2.96,1.03c-.2-.42-.51-.69-.94-.82-.42-.13-.91-.09-1.46.1s-.98.49-1.21.88-.27.79-.12,1.21c.13.37.36.64.71.83.34.18.77.25,1.28.19l1.7-.19c1.38-.15,2.53.03,3.46.56.93.53,1.59,1.38,2,2.55.22.63.3,1.25.24,1.85-.06.6-.24,1.17-.55,1.69s-.74,1-1.28,1.43c-.55.43-1.2.77-1.96,1.03s-1.44.39-2.11.41c-.67.02-1.28-.07-1.84-.27-.55-.2-1.04-.5-1.47-.92-.42-.41-.76-.92-1.02-1.53Z"/>
  </g>
</svg>